<?xml version="1.0" encoding="UTF-8"?>
<!DOCTYPE svg PUBLIC "-//W3C//DTD SVG 1.1//EN" "http://www.w3.org/Graphics/SVG/1.1/DTD/svg11.dtd">
<!-- Creator: CorelDRAW X5 -->
<svg xmlns="http://www.w3.org/2000/svg" xml:space="preserve" width="30px" height="24px" style="shape-rendering:geometricPrecision; text-rendering:geometricPrecision; image-rendering:optimizeQuality; fill-rule:evenodd; clip-rule:evenodd"
viewBox="0 0 1.26647 1.02554"
 xmlns:xlink="http://www.w3.org/1999/xlink">
 <defs>
  <style type="text/css">
   <![CDATA[
    .fil0 {fill:white}
   ]]>
  </style>
 </defs>
 <g id="PowerClip_x0020_Contents">
  <metadata id="CorelCorpID_0Corel-Layer"/>
  <g id="_473540408">
   <path id="_473541008" class="fil0" d="M0.748564 0.738342l-0.406467 0c-0.0458722,0 -0.0832181,-0.0372961 -0.0832181,-0.0832181l0 -0.306546c0,-0.0101717 -0.00822707,-0.0183489 -0.0183489,-0.0183489l-0.206175 0c-0.0189472,0 -0.0343543,0.0154071 -0.0343543,0.0343543l0 0.479514c0,0.0189472 0.0154071,0.0343543 0.0343543,0.0343543l0.055246 0c0.00593347,0 0.0115678,0.00289194 0.0150082,0.00772846l0.0932402 0.131633c0.00344041,0.00483652 0.00902485,0.00772846 0.0149583,0.00772846 0.00598333,0 0.0115678,-0.00289194 0.0150082,-0.00772846l0.0932402 -0.131633c0.00344041,-0.00483652 0.00902485,-0.00772846 0.0149583,-0.00772846l0.396595 0c0.0188973,0 0.0343044,-0.0154071 0.0343044,-0.0343543l0 -0.0873566c0,-0.0101717 -0.00817721,-0.0183987 -0.0183489,-0.0183987z"/>
   <path id="_473540384" class="fil0" d="M1.21995 0l-0.859505 0c-0.0256286,0 -0.0465204,0.0208419 -0.0465204,0.0465204l0 0.590255c0,0.0256784 0.0208918,0.0465204 0.0465204,0.0465204l0.48814 0c0.00593347,0 0.0115179,0.00289194 0.0149583,0.00772846l0.121711 0.171821c0.00344041,0.00483652 0.00907471,0.00772846 0.0150082,0.00772846 0.00593347,0 0.0115179,-0.00289194 0.0149583,-0.00772846l0.121711 -0.171771c0.00344041,-0.00488638 0.00902485,-0.00777832 0.0149583,-0.00777832l0.0680603 0c0.0256286,0 0.0465204,-0.0208419 0.0465204,-0.0465204l0 -0.590255c0,-0.0256784 -0.0208419,-0.0465204 -0.0465204,-0.0465204zm-0.384528 0.490433l0 0.0409359c0,0.00423819 -0.00344041,0.0076786 -0.0076786,0.0076786l-0.0589358 0c-0.00423819,0 -0.0076786,-0.00344041 -0.0076786,-0.0076786l0 -0.0424318c-0.0310136,-0.00747916 -0.0597335,-0.0233848 -0.0794785,-0.0442268l-0.0114182 -0.0121162c-0.00139611,-0.00144597 -0.00219389,-0.00344041 -0.00209416,-0.00548472 4.98611e-005,-0.0020443 0.000897499,-0.00393902 0.00239333,-0.00538499l0.0427808 -0.0404872c0.00309139,-0.00289194 0.00792791,-0.00274236 0.0108697,0.000299166l0.0114182 0.0121162c0.0145594,0.0153572 0.0403875,0.0256784 0.0642709,0.0256784 0.0189472,0 0.0509081,-0.00498611 0.0509081,-0.023684 0.000149583,-0.016155 -0.00688083,-0.0226868 -0.056343,-0.0376451 -0.0423819,-0.0128642 -0.113234,-0.0343044 -0.113234,-0.114082 0,-0.0446755 0.0304651,-0.0802264 0.0799273,-0.0938884l0 -0.0438279c0,-0.00428805 0.00344041,-0.00772846 0.0076786,-0.00772846l0.0589358 0c0.00423819,0 0.0076786,0.00344041 0.0076786,0.00772846l0 0.0397393c0.0255787,0.00378944 0.0504095,0.0126148 0.0690077,0.0245815l0.0139611 0.00902485c0.00359,0.00234347 0.00458722,0.00708027 0.00229361,0.0106703l-0.0319609 0.0494622c-0.00229361,0.00354013 -0.00703041,0.00458722 -0.0106204,0.00229361l-0.0139611 -0.00902485c-0.013263,-0.0085761 -0.0364983,-0.0147589 -0.0552959,-0.0147589 -0.0198447,0 -0.0533513,0.00543485 -0.0533513,0.0257283 0,0.0190968 0.00792791,0.0270746 0.0604316,0.0429802 0.0437281,0.0132132 0.109744,0.0332075 0.109146,0.109046 0,0.0481159 -0.0341548,0.0839162 -0.0896502,0.0944867z"/>
  </g>
 </g>
</svg>
