<!DOCTYPE svg PUBLIC "-//W3C//DTD SVG 1.1//EN" "http://www.w3.org/Graphics/SVG/1.1/DTD/svg11.dtd">
<!-- Uploaded to: SVG Repo, www.svgrepo.com, Transformed by: SVG Repo Mixer Tools -->
<svg fill="#26a987" height="800px" width="800px" version="1.1" id="Layer_1" xmlns="http://www.w3.org/2000/svg" xmlns:xlink="http://www.w3.org/1999/xlink" viewBox="0 0 512 512" xml:space="preserve" stroke="#26a987">
<g id="SVGRepo_bgCarrier" stroke-width="0"/>
<g id="SVGRepo_tracerCarrier" stroke-linecap="round" stroke-linejoin="round"/>
<g id="SVGRepo_iconCarrier"> <g> <g> <path d="M280.994,47.602C251.296,17.653,210.55,0.82,166.121,0.092c-2.229-0.138-4.461-0.12-6.689,0.047 c-43.623,1.21-83.568,17.98-112.802,47.463c-30.05,30.305-46.6,71.834-46.6,116.935c0,50.497,30.95,89.069,58.256,123.101 c17.559,21.884,34.146,42.566,37.103,61.123v34.729c0,0.128,0.015,0.252,0.019,0.378c0.005,0.16,0.01,0.32,0.024,0.481 c0.019,0.233,0.05,0.463,0.085,0.691c0.014,0.094,0.018,0.188,0.034,0.282l13.02,73.136c0.888,4.985,5.223,8.616,10.286,8.616 h89.907c5.064,0,9.399-3.632,10.286-8.616l13.021-73.136c0.017-0.094,0.02-0.188,0.034-0.282c0.034-0.229,0.065-0.458,0.085-0.691 c0.014-0.161,0.019-0.321,0.024-0.481c0.004-0.126,0.019-0.251,0.019-0.378v-34.729c2.957-18.557,19.544-39.238,37.103-61.123 c27.306-34.032,58.256-72.604,58.256-123.101C327.593,119.436,311.043,77.908,280.994,47.602z M184.403,29.781 c0.038,0.034,0.075,0.066,0.112,0.099c25.026,23.174,54.859,64.389,54.859,129.142c0,55.812-19.027,94.296-34.316,125.219 c-9.439,19.091-17.768,35.989-20.159,53.228h-1.979c0.718-14.584,2.905-29.891,5.367-47.118 c4.608-32.226,10.34-72.331,10.34-131.328C198.627,98.119,191.47,56.264,184.403,29.781z M163.104,31.13 c7.038,24.74,14.627,65.818,14.627,127.894c0,57.511-5.617,96.801-10.13,128.371c-1.775,12.415-3.412,23.872-4.497,34.933 c-1.085-11.061-2.722-22.516-4.497-34.933c-4.514-31.57-10.13-70.86-10.13-128.371C148.477,96.946,156.065,55.869,163.104,31.13z M141.693,29.88c0.037-0.034,0.075-0.065,0.112-0.099c-7.067,26.481-14.224,68.336-14.224,129.242 c0,58.997,5.734,99.103,10.34,131.328c2.464,17.228,4.649,32.534,5.367,47.118h-1.979c-2.392-17.238-10.721-34.137-20.16-53.227 c-15.289-30.922-34.315-69.406-34.315-125.219C86.834,94.269,116.666,53.054,141.693,29.88z M74.586,274.561 c-25.151-31.346-53.659-66.873-53.659-110.023c0-63.167,37.018-114.544,91.641-134.555c-23.78,27.424-46.63,69.309-46.63,129.041 c0,60.695,20.227,101.607,36.48,134.48c8.348,16.884,15.28,30.93,17.738,43.967h-5.925 C108.112,316.346,91.766,295.973,74.586,274.561z M200.013,446.178H127.61l-9.301-52.24h91.004L200.013,446.178z M211.338,373.042 h-95.053v-14.676h95.053V373.042z M253.038,274.561c-17.181,21.412-33.526,41.786-39.645,62.909h-7.341 c2.456-13.036,9.39-27.082,17.738-43.967c16.253-32.872,36.481-73.785,36.481-134.48c0-60.264-23.259-102.363-47.266-129.772 c55.743,19.468,93.69,71.333,93.69,135.287C306.696,207.687,278.188,243.216,253.038,274.561z"/> </g> </g> <g> <g> <path d="M454.621,442.279c-11.538-22.313-34.905-36.848-60.318-36.848c-25.413,0-48.779,14.535-60.317,36.848 c-28.247,0.784-51.599,21.623-56.431,48.826h-50.911c-5.77,0-10.448,4.678-10.448,10.448c0,5.77,4.678,10.448,10.448,10.448 h60.442c5.77,0,10.448-4.678,10.448-10.448c0-21.174,17.091-38.401,38.1-38.401c1.258,0,2.588,0.07,3.953,0.208 c4.695,0.473,9.134-2.266,10.814-6.681c6.905-18.154,24.549-30.351,43.903-30.351c19.356,0,36.999,12.197,43.903,30.351 c1.68,4.416,6.111,7.15,10.814,6.681c1.365-0.138,2.694-0.208,3.95-0.208c17.418,0,32.144,11.84,36.67,27.953H365.383 c-5.77,0-10.448,4.678-10.448,10.448c0,5.77,4.678,10.448,10.448,10.448h136.138c5.77,0,10.448-4.678,10.448-10.448 C511.969,469.411,486.394,443.161,454.621,442.279z"/> </g> </g> <g> <g> <path d="M333.517,491.104h-0.163c-5.77,0-10.448,4.678-10.448,10.448c0,5.77,4.678,10.448,10.448,10.448h0.163 c5.77,0,10.448-4.678,10.448-10.448C343.965,495.782,339.287,491.104,333.517,491.104z"/> </g> </g> <g> <g> <path d="M193.373,491.104h-0.163c-5.77,0-10.448,4.678-10.448,10.448c0,5.77,4.678,10.448,10.448,10.448h0.163 c5.77,0,10.448-4.678,10.448-10.448C203.821,495.782,199.143,491.104,193.373,491.104z"/> </g> </g> <g> <g> <path d="M419.283,211.556c-12.549,0-23.82,5.544-31.517,14.302c-7.697-8.759-18.968-14.302-31.517-14.302 c-5.77,0-10.448,4.678-10.448,10.448c0,5.77,4.678,10.448,10.448,10.448c11.618,0,21.069,9.451,21.069,21.069 c0,5.77,4.678,10.448,10.448,10.448c5.77,0,10.448-4.678,10.448-10.448c0-11.618,9.451-21.069,21.069-21.069 c5.77,0,10.448-4.678,10.448-10.448C429.731,216.234,425.054,211.556,419.283,211.556z"/> </g> </g> <g> <g> <path d="M489.069,293.812c-12.549,0-23.82,5.544-31.517,14.302c-7.697-8.758-18.968-14.302-31.517-14.302 c-5.77,0-10.448,4.678-10.448,10.448c0,5.77,4.678,10.448,10.448,10.448c11.618,0,21.069,9.451,21.069,21.069 c0,5.77,4.678,10.448,10.448,10.448c5.77,0,10.448-4.678,10.448-10.448c0-11.618,9.451-21.069,21.069-21.069 c5.77,0,10.448-4.678,10.448-10.448C499.517,298.49,494.84,293.812,489.069,293.812z"/> </g> </g> </g>
</svg>