<!DOCTYPE svg PUBLIC "-//W3C//DTD SVG 1.1//EN" "http://www.w3.org/Graphics/SVG/1.1/DTD/svg11.dtd">
<!-- Uploaded to: SVG Repo, www.svgrepo.com, Transformed by: SVG Repo Mixer Tools -->
<svg fill="#26a987" width="800px" height="800px" viewBox="0 0 512 512" enable-background="new 0 0 512 512" id="zebra" version="1.1" xml:space="preserve" xmlns="http://www.w3.org/2000/svg" xmlns:xlink="http://www.w3.org/1999/xlink" stroke="#26a987">
<g id="SVGRepo_bgCarrier" stroke-width="0"/>
<g id="SVGRepo_tracerCarrier" stroke-linecap="round" stroke-linejoin="round"/>
<g id="SVGRepo_iconCarrier"> <g> <circle cx="87.117" cy="114.428" r="6.566"/> <path d="M436.292,254.307c0.029-34.783-28.26-63.089-63.035-63.089h-24.441c-0.036,0-0.071-0.003-0.107-0.003H326.42 c-3.533,0-6.397,2.865-6.397,6.398v0.204c0,3.533,2.864,6.398,6.397,6.398h22.288v0.003h0.106 c16.341,0.031,31.688,7.223,42.175,19.748c-13.554,35.712-40.091,54.511-51.862,61.39c-0.071-0.963-0.088-1.533-0.089-1.576l0,0 c-0.068-4.389-4.379-7.449-8.546-6.066l0,0c-8.923,2.961-21.405,6.283-36.684,8.314c14.505-10.992,31.249-29.227,39.749-58.052 c1.038-3.52-1.09-7.197-4.66-8.046l-0.195-0.046c-3.284-0.781-6.643,1.115-7.596,4.354c-5.873,19.953-16.856,36.553-32.704,49.411 c-10.983,8.91-20.984,13.127-23.979,14.273c-8.18-0.029-16.386-0.498-24.474-1.426c-0.337-1.682-0.759-3.348-1.299-4.979 c6.953-3.627,18.318-10.875,28.136-23.258l0.271-0.357c5.051-6.425,9.099-13.537,12.025-21.123 c1.135-2.914,2.111-5.924,2.924-9.002c0.945-3.581-1.42-7.199-5.063-7.86l-0.2-0.036c-3.313-0.602-6.481,1.479-7.348,4.732 c-0.68,2.553-1.493,5.049-2.435,7.469c-2.471,6.401-5.881,12.39-10.137,17.803l-0.152,0.199c-0.044,0.057-0.088,0.115-0.132,0.172 c-11.605,14.595-25.859,20.812-28.337,21.816c-0.297,0.098-0.583,0.215-0.855,0.35l-5.343,2.695l2.191,5.564l0.294,0.641 c1.99,3.787,3.12,8.043,3.27,12.307l0.01,0.205c0.017,0.248,0.016,0.494,0.015,0.742l-0.087,2.387 c-0.033,0.416-0.079,0.826-0.118,1.189c-0.162,1.371-0.435,2.758-0.815,4.137c-0.308,1.125-0.674,2.211-1.091,3.234 c-6.702,16.518-6.613,34.947,0.247,51.893l2.593,6.414c0.439,1.088,0.666,2.252,0.666,3.424v104.111h-12.043v-103.07 l-42.486-83.135c-0.958-1.873-1.834-3.787-2.646-5.729c13.478-3.846,44.257-16.164,61.375-51.229 c1.609-3.297,0.045-7.271-3.348-8.665l-0.197-0.081c-3.121-1.282-6.692,0.09-8.177,3.12c-15.235,31.091-42.798,41.502-53.73,44.51 c-1.128-4.58-1.875-9.254-2.221-13.958c-0.251-3.409-3.06-6.057-6.478-6.057l0,0c-3.768,0-6.766,3.195-6.492,6.953 c0.866,11.884,3.94,23.608,9.03,34.384l-0.481-0.307l-0.625-0.236c-6.02-2.275-21.005-9.396-30.114-26.299 c-2.691-4.994-4.395-9.937-5.417-14.61c7.349-1.99,45.701-13.156,63.37-33.767c2.567-2.995,1.764-7.596-1.625-9.616l-0.167-0.1 c-2.654-1.582-6.083-1.064-8.089,1.285c-12.462,14.591-40.945,25.121-54.813,29.079c0.073-6.099,1.062-10.997,1.811-13.854 c2.313-8.618,3.724-17.334,4.229-26.071c8.676-1.871,25.333-7.06,35.534-20.464c2.419-3.179,1.332-7.784-2.237-9.578l-0.188-0.095 c-2.773-1.394-6.106-0.565-7.999,1.895c-6.732,8.749-17.827,12.944-25.055,14.845c-0.115-2.368-0.289-4.735-0.537-7.1 c-0.752-7.156-2.14-14.283-4.115-21.25c6.645-5.056,12.051-12.009,15.945-20.528c1.575-3.446-0.189-7.504-3.779-8.717l-0.195-0.066 c-3.103-1.049-6.494,0.41-7.857,3.388c-2.963,6.468-7.812,13.577-15.644,18.006c-1.944,1.1-3.935,1.948-6.656,2.838 c-5.082,1.662-10.739,2.776-16.838,3.345l-10.03-13.725c-4.734-6.478-12.613-9.847-20.571-8.791 c-3.371,0.442-6.641-1.021-8.546-3.833l-1.32-1.947L78.35,97.504c6.354-5.472,13.592-9.804,21.493-12.869 c0.433-0.166,0.866-0.325,1.281-0.468c1.109-0.376,2.23-0.682,3.358-0.928c0.012,1.274,0.178,3.184,0.396,5.16 c0.407,3.696,3.904,6.243,7.543,5.482l0,0c2.996-0.626,5.104-3.312,5-6.37c-0.224-6.569,0.483-14.741,1.99-21.148 c2.281-9.713,8.982-16.511,13.96-20.386c2.686,7.402,5.973,19.679,3.41,30.591c-0.857,3.647-2.719,8.709-4.519,12.912 c-1.338,3.123-0.072,6.747,2.927,8.346l0,0c3.316,1.768,7.437,0.377,9.009-3.037c0.629-1.367,1.188-2.622,1.504-3.402 c0.858,0.958,1.687,1.944,2.454,2.989c2.285,3.088,4.104,6.499,5.408,10.142l15.949,44.481l9.419,24.897 c3.809,10.067,11.034,18.588,20.35,23.998c7.152,4.141,15.291,6.33,23.536,6.33h66.156c3.533,0,6.397-2.865,6.397-6.398v-0.204 c0-3.533-2.864-6.398-6.397-6.398h-7.808l-2.267-1.825c-15.392-12.387-34.61-18.43-54.363-18.835 c-5.654-0.116-10.726-3.723-12.679-9.048l-23.457-63.964c-7.205-19.648-21.224-35.62-39.649-45.313 c-2.429-10.538-6.316-18.324-6.601-18.887l-2.897-5.718l-5.758,2.818c-0.641,0.314-11.851,5.931-19.87,17.591l-8.97,2.772 c-15.399,4.761-28.438,15.354-35.774,29.063c-2.215,4.14-3.94,8.524-5.146,13.059l-45.598,39.287 c-3.163,2.563-5.433,5.904-6.555,9.624c-1.208,3.888-1.07,8.088,0.381,11.813c2.203,5.69,6.258,10.303,11.729,13.339 c4.325,2.4,9.169,3.613,14.103,3.613c3.764,0,7.581-0.706,11.255-2.129l14.567-5.638c18.015,2.157,33.982,1.015,47.481-3.399 c0.847-0.277,1.648-0.556,2.418-0.842c1.361,5.327,2.343,10.743,2.915,16.175c1.468,13.951,0.333,28.027-3.383,41.874 c-2.112,8.054-5.749,29.139,6.025,51.03l-26.295,75.52l55.224,119.611l-1.965,1.309c-2.941,1.957-3.738,5.93-1.78,8.871l0.113,0.17 c1.958,2.941,5.93,3.738,8.872,1.779l24.705-16.449l-37.271-109.123l15.433-20.215c2.145-2.809,1.606-6.824-1.203-8.969 l-0.162-0.123c-2.809-2.145-6.824-1.605-8.968,1.203L126.13,347l36.28,106.221l-3.454,2.299l-52.173-113.002l21.484-61.697 c9.927,11.145,21.331,16.678,27.154,18.959l3.387,2.154c7.13,4.533,18.084,18.494,22.082,23.998l23.249,45.492v99.941h-3.993 c-3.533,0-6.398,2.863-6.398,6.396v0.205c0,3.533,2.865,6.398,6.398,6.398h42.036V367.244c0-2.836-0.546-5.645-1.609-8.273 l-2.599-6.43c-5.587-13.801-5.676-28.762-0.256-42.121c0.609-1.494,1.143-3.076,1.583-4.688c0.55-1.992,0.95-4.025,1.195-6.104 c8.302,0.879,16.712,1.32,25.063,1.301c21.008-0.049,42.01-2.967,61.252-8.479c0.448,3.123,1.158,6.92,2.276,11.074 c-8.595,3.613-21.124,7.867-37.447,8.92c-22.993,1.486-30.476-0.072-38.205-1.549l-0.679-0.117 c-3.501-0.605-6.84,1.715-7.494,5.207l0,0c-0.667,3.564,1.709,6.984,5.281,7.602l0.451,0.078 c6.536,1.248,11.071,2.242,26.955,2.242c2.231,0,4.583-0.039,7.055-0.123c6.011,9.297,13.83,16.326,23.295,20.916 c11.736,5.705,18.744,14.102,18.744,22.461c0,8.117-1.652,16.004-4.912,23.439l-0.092,0.211l-28.011,78.555h-1.997 c-3.533,0-6.397,2.865-6.397,6.398v0.205c0,3.533,2.864,6.396,6.397,6.396h35.502l37.424-100.525l-0.184-35.744 c10.12,5.631,16.082,13.361,16.082,21.064v102.205h-2.479c-3.534,0-6.398,2.865-6.398,6.398v0.205c0,3.533,2.864,6.396,6.398,6.396 h36.584v-82.445l6.347-53.381c1.486-10.289-2.724-14.824-5.372-16.613c-6.803-4.598-10.207-12.512-10.391-24.172l5.195-15.863 c8.379,13.816,23.563,23.068,40.867,23.068h17.77c17.592,0,31.854-14.262,31.854-31.855v-6.5h-42.315 C446.548,276.605,436.282,266.676,436.292,254.307z M242.056,185.629c5.358,1.287,10.564,3.159,15.51,5.593h-15.51V185.629z M214.718,181.572c3.151,1.29,6.571,1.994,10.1,1.994c1.416,0,2.828,0.056,4.238,0.138v7.519h-6.237 c-3.98,0-7.921-0.721-11.643-2.081L214.718,181.572z M199.653,165.99c1.042,2.841,2.553,5.419,4.407,7.685l-4.071,8.704 c-3.929-3.583-7-8.069-8.898-13.086l-0.726-1.917l7.837-5.342L199.653,165.99z M188.646,135.977l4.94,13.47l-7.953,5.421 l-3.901-10.312l-1.574-4.391L188.646,135.977z M184.146,123.703l-8.404,4.147l-4.782-13.337l8.311-4.104L184.146,123.703z M168.32,86.624c2.45,3.622,4.566,7.494,6.332,11.571l-8.108,4.002l-0.741-2.065c-1.031-2.88-2.312-5.651-3.814-8.289 L168.32,86.624z M150.678,68.638c3.367,2.382,6.51,5.033,9.388,7.94l-5.865,4.835c-1.363-1.422-2.801-2.769-4.317-4.03 C150.417,74.472,150.655,71.538,150.678,68.638z M106.657,63.851c-0.46,2.006-0.842,4.02-1.159,6.029 c-2.893,0.369-5.758,1.029-8.579,1.987c-0.584,0.201-1.159,0.411-1.755,0.64c-2.441,0.947-4.825,2.002-7.153,3.151 C93.137,70.449,99.534,66.362,106.657,63.851z M63.638,149.746l-1.641-0.213l-17.639,6.828c-2.445,0.947-5.033,1.336-7.537,1.192 l3.284-2.624c2.805-2.241,3.262-6.331,1.021-9.136l0,0c-2.241-2.805-6.331-3.262-9.136-1.021l-7.172,5.73 c-0.275-0.498-0.528-1.01-0.736-1.547c-0.398-1.022-0.427-2.146-0.068-3.302c0.385-1.278,1.197-2.439,2.347-3.359l13.479-11.612 l0.475,0.7c4.686,6.913,12.737,10.525,21.017,9.424c3.235-0.423,6.44,0.941,8.365,3.575l4.627,6.332 C70.845,150.535,67.281,150.219,63.638,149.746z M318.501,471.367h-10.67l26.303-73.762c3.922-9.029,5.91-18.596,5.91-28.443 c0-13.654-9.499-26.102-26.066-34.154c-5.149-2.498-9.688-5.965-13.57-10.354c14.016-1.775,25.024-5.521,32.998-8.834 c3.805,8.602,9.578,17.428,18.328,24.357l0.213,41.355L318.501,471.367z M408.385,342.512c0.173,0.469,0.407,1.801,0.049,4.23 l-6.472,54.41v70.215h-8.105V369.162c0-13.654-9.498-26.102-26.063-34.154c-16.227-7.877-23.301-23.975-26.385-36.037 c9.664-4.938,40.168-22.969,57.963-61.394c4.297,9.968,5.594,21.074,3.529,32.013l-1.99,10.553l-8.246,25.174 c-2.762,3.955-5.776,7.773-9.011,11.404c-2.263,2.539-2.126,6.41,0.298,8.795l0.146,0.145c2.617,2.576,6.85,2.418,9.293-0.324 c0.496-0.557,0.988-1.117,1.475-1.684C397.37,331.715,401.884,338.029,408.385,342.512z M469.378,301.961h-17.77 c-19.166,0-34.758-15.592-34.758-34.717l0.025-4.23h-0.135c0.931-17.026-4.52-33.816-15.566-47.142 c-2.041-2.461-4.248-4.738-6.572-6.86c16.941,8.025,28.689,25.285,28.689,45.242c0,19.493,15.859,35.352,35.352,35.352h28.434 C484.424,296.809,477.491,301.961,469.378,301.961z"/> </g> </g>
</svg>