<?xml version="1.0" encoding="UTF-8"?>
<!DOCTYPE svg PUBLIC "-//W3C//DTD SVG 1.1//EN" "http://www.w3.org/Graphics/SVG/1.1/DTD/svg11.dtd">
<!-- Creator: CorelDRAW X5 -->
<svg xmlns="http://www.w3.org/2000/svg" xml:space="preserve" width="25px" height="30px" style="shape-rendering:geometricPrecision; text-rendering:geometricPrecision; image-rendering:optimizeQuality; fill-rule:evenodd; clip-rule:evenodd"
viewBox="0 0 1.48093 1.79379"
 xmlns:xlink="http://www.w3.org/1999/xlink">
 <defs>
  <style type="text/css">
   <![CDATA[
    .fil0 {fill:#423797}
   ]]>
  </style>
 </defs>
 <g id="PowerClip_x0020_Contents">
  <metadata id="CorelCorpID_0Corel-Layer"/>
  <g id="_306431600">
   <path id="_473540312" class="fil0" d="M0.590042 0.750989c0.0105226,0.0170198 0.0288136,0.0271893 0.0489407,0.0271893 0.0106638,0 0.0211158,-0.0029661 0.0301554,-0.0085452l0.110523 -0.0684322c0.0269068,-0.0166667 0.0352401,-0.0521186 0.0186441,-0.079096l-0.0914548 -0.147669c-0.0105226,-0.0170198 -0.0288136,-0.0271893 -0.0488701,-0.0271893 -0.0106638,0 -0.0211158,0.0029661 -0.030226,0.0085452l-0.110452 0.0683616c-0.0269774,0.0166667 -0.0353107,0.0521893 -0.0186441,0.079096l0.0913842 0.14774z"/>
   <path id="_473540360" class="fil0" d="M1.47295 0.262782l-0.147105 -0.237641c-0.00974576,-0.0157486 -0.0265537,-0.0251412 -0.0451271,-0.0251412 -0.00988701,0 -0.0194915,0.00275424 -0.0278955,0.0079096l-0.0501412 0.0310734c-0.0120056,0.00741525 -0.0204802,0.0191384 -0.0237288,0.0329802 -0.00183616,0.00776836 -0.00190678,0.0158192 -0.000211864,0.0234463 0.00120056,0.00543785 0.00310734,0.0172316 -0.0122175,0.0271186l-0.392514 0.242867c-0.0120056,0.00741525 -0.0204802,0.0191384 -0.0237288,0.0329096 -0.00324859,0.0138418 -0.000918079,0.0280367 0.0065678,0.0400424l0.0959746 0.155226c0.00974576,0.0157486 0.0266243,0.0251412 0.0451977,0.0251412 0.00981638,0 0.0194915,-0.00275424 0.0278249,-0.0079096l0.181215 -0.112147c0.016596,-0.0103814 0.0213277,0.000847458 0.0241525,0.00614407 0.0393362,0.0734463 0.0601695,0.156003 0.0601695,0.24209 0,0.283475 -0.230579,0.514054 -0.514054,0.514054 -0.15346,0 -0.29654,-0.0681497 -0.39315,-0.182839 -0.00409605,-0.00487288 -0.0126412,-0.0147599 0.00508475,-0.0147599l0.00579096 0c0.0316384,0 0.0574153,-0.0258475 0.0574153,-0.0574859l0 -0.0379944c0,-0.031709 -0.0257768,-0.0574859 -0.0574153,-0.0574859l-0.237641 0c-0.031709,0 -0.0574153,0.0257768 -0.0574153,0.0574859l0 0.0379944c0,0.0316384 0.0257062,0.0574859 0.0574153,0.0574859l0.066596 0c0.016596,0 0.0207627,0.0100282 0.0238701,0.0149718 0.102472,0.16363 0.274223,0.270127 0.465254,0.28976 0.0110169,0.00112994 0.0332627,0.00162429 0.0332627,0.0325565l0 0.12154c0,0 -0.000847458,0.0315678 -0.0361582,0.0315678l-0.2125 0c-0.0341808,0 -0.061935,0.0278249 -0.061935,0.061935l0 0.116243c0,0.0341102 0.0277542,0.0618644 0.061935,0.0618644l0.668432 0c0.0341808,0 0.061935,-0.0277542 0.061935,-0.0618644l0 -0.116243c0,-0.0341102 -0.0277542,-0.061935 -0.061935,-0.061935l-0.215042 0c-0.0298729,0 -0.0299435,-0.0271893 -0.0299435,-0.0271893l0 -0.143644c0,-0.0309322 0.0271893,-0.0350989 0.0404661,-0.0391949 0.254661,-0.0788136 0.440254,-0.316525 0.440254,-0.596822 0,-0.10565 -0.0258475,-0.20685 -0.0745763,-0.296822 -0.00353107,-0.00642655 -0.0079096,-0.0206921 0.00409605,-0.0283898l0.0881356 -0.0544492c0.0149718,-0.0118644 0.025565,-0.00310734 0.0302966,-0.000282486 0.00819209,0.00508475 0.017726,0.00783898 0.0278249,0.00783898 0.00988701,0 0.0194915,-0.00275424 0.0278249,-0.0079096l0.0502119 -0.0310734c0.0248588,-0.0153955 0.0326271,-0.0480932 0.0172316,-0.0730226z"/>
  </g>
 </g>
</svg>
