<?xml version="1.0" encoding="UTF-8"?>
<!DOCTYPE svg PUBLIC "-//W3C//DTD SVG 1.1//EN" "http://www.w3.org/Graphics/SVG/1.1/DTD/svg11.dtd">
<!-- Creator: CorelDRAW X5 -->
<svg xmlns="http://www.w3.org/2000/svg" xml:space="preserve" width="25px" height="30px" style="shape-rendering:geometricPrecision; text-rendering:geometricPrecision; image-rendering:optimizeQuality; fill-rule:evenodd; clip-rule:evenodd"
viewBox="0 0 4.61124 5.59659"
 xmlns:xlink="http://www.w3.org/1999/xlink">
 <defs>
  <style type="text/css">
   <![CDATA[
    .fil0 {fill:#423797}
   ]]>
  </style>
 </defs>
 <g id="PowerClip_x0020_Contents">
  <metadata id="CorelCorpID_0Corel-Layer"/>
  <path class="fil0" d="M4.47969 5.59659l-4.34815 0c-0.0727116,0 -0.131542,-0.0588303 -0.131542,-0.131542l0 -2.90009 0 -0.0017627c0,-0.0125593 0.0017627,-0.0251185 0.00550845,-0.0370168l0 -0.000220338 0.000220338 -0.000220338 0 -0.000220338c0,0 0,-0.000220338 0,-0.000220338 0.000220338,-0.000220338 0.000220338,-0.000220338 0.000220338,-0.000440676 0,0 0,0 0,0 0,0 0,-0.000220338 0,-0.000220338 0.00550845,-0.0174067 0.0145423,-0.0332711 0.0262202,-0.0467117 0.0116779,-0.013661 0.0257796,-0.0244575 0.0412032,-0.031949 0.0160847,-0.00793217 0.0339321,-0.0127796 0.0526608,-0.0134406 0.00220338,0 0.0046271,-0.000220338 0.00661014,0l0.594472 0 0.0771183 -0.505235c0.00969488,-0.0641184 0.0649997,-0.111711 0.129999,-0.111711l2.74277 0c0.0649997,0 0.120305,0.047593 0.129999,0.111711l0.0771183 0.505235 0.594472 0c0.00198304,-0.000220338 0.00418642,0 0.0063898,0 0.0182881,0.000661014 0.0354744,0.00506778 0.0511184,0.0125593 0.0160847,0.00771183 0.030627,0.0185084 0.0429659,0.0328304 0.0107966,0.0123389 0.0191694,0.0266609 0.0248982,0.0425253l0 0c0,0 0,0.000220338 0,0.000220338 0,0.000220338 0,0.000440676 0.000220338,0.000440676 0,0.000220338 0,0.000220338 0,0.000440676l0 0c0,0 0.000220338,0.000220338 0.000220338,0.000440676 0,0 0,0.000220338 0,0.000220338 0.000220338,0.000220338 0.000220338,0.000220338 0.000220338,0.000440676 0,0 0,0 0,0 0,0.000220338 0.000220338,0.000220338 0.000220338,0.000440676l0 0c0,0 0,0.000220338 0,0.000220338l0 0.000220338c0,0 0.000220338,0.000220338 0.000220338,0.000220338 0,0 0,0 0,0.000220338 0,0 0,0.000220338 0,0.000220338 0,0 0,0.000220338 0,0.000220338 0,0 0.000220338,0 0.000220338,0.000220338 0,0 0,0 0,0 0,0.000220338 0,0.000220338 0,0.000220338 0,0.000220338 0,0.000220338 0,0.000220338 0.000220338,0 0.000220338,0.000220338 0.000220338,0.000220338 0,0.000220338 0,0.000220338 0,0.000220338 0,0 0,0.000220338 0.000220338,0.000220338 0,0 0,0.000220338 0,0.000220338 0,0 0,0.000220338 0,0.000220338 0,0 0,0.000220338 0,0.000220338l0.000220338 0c0,0.000220338 0,0.000220338 0,0.000440676 0,0 0,0 0,0 0,0.000220338 0,0.000220338 0,0.000440676 0,0 0,0 0,0l0.000220338 0.000220338 0 0.000220338c0.00352541,0.0121186 0.00506778,0.0246779 0.00506778,0.0372371l0 2.90031c0,0.0724912 -0.0588303,0.131321 -0.131542,0.131321zm-4.21661 -0.263084l4.08507 0 0 -2.49555 -1.43572 1.15193 0 0.12383c0,0.0724912 -0.0590506,0.131542 -0.131542,0.131542l-0.950539 0c-0.0724912,0 -0.131542,-0.0590506 -0.131542,-0.131542l0 -0.147406 -1.43572 -1.13144 0 2.49863zm1.69881 -1.35133l0.687455 0 0 -0.233779 -0.687455 0 0 0.233779zm-0.131542 -0.496862l0.950539 0c0.0727116,0 0.131542,0.0590506 0.131542,0.131542l0 0.0359151 1.19313 -0.957369 -0.33227 0c-0.00154237,0 -0.0028644,0 -0.00440676,0l-2.92653 0c-0.00132203,0 -0.0028644,0 -0.00440676,0l-0.327202 0 1.18806 0.935996 0 -0.0145423c0,-0.0724912 0.0590506,-0.131321 0.131542,-0.131542zm-0.837285 -1.05278l2.62511 0 -0.0539828 -0.353863 -2.51714 0 -0.0539828 0.353863zm-0.861522 -0.29966c-0.0727116,0 -0.131542,-0.0590506 -0.131542,-0.131542l0 -1.86979c0,-0.0727116 0.0588303,-0.131542 0.131542,-0.131542l0.724692 0c0.0727116,0 0.131542,0.0588303 0.131542,0.131542l0 0.301643 0.59315 0c0.0724912,0 0.131542,0.0588303 0.131542,0.131542l0 0.24083 0.59315 0c0.0724912,0 0.131542,0.0588303 0.131542,0.131321l0 0.506778c0,0.0724912 -0.0590506,0.131321 -0.131542,0.131321 -0.0724912,0 -0.131542,-0.0588303 -0.131542,-0.131321l0 -0.375236 -0.461608 0 0 0.375236c0,0.0724912 -0.0590506,0.131321 -0.131542,0.131321 -0.0727116,0 -0.131542,-0.0588303 -0.131542,-0.131321l0 -0.747387 -0.461608 0 0 0.747387c0,0.0724912 -0.0588303,0.131321 -0.131542,0.131321 -0.0727116,0 -0.131542,-0.0588303 -0.131542,-0.131321l0 -1.18079 -0.461608 0 0 1.73847c0,0.0724912 -0.0590506,0.131542 -0.131542,0.131542z"/>
 </g>
</svg>
