<?xml version="1.0" encoding="UTF-8"?>
<!DOCTYPE svg PUBLIC "-//W3C//DTD SVG 1.1//EN" "http://www.w3.org/Graphics/SVG/1.1/DTD/svg11.dtd">
<!-- Creator: CorelDRAW X5 -->
<svg xmlns="http://www.w3.org/2000/svg" xml:space="preserve" width="23px" height="30px" style="shape-rendering:geometricPrecision; text-rendering:geometricPrecision; image-rendering:optimizeQuality; fill-rule:evenodd; clip-rule:evenodd"
viewBox="0 0 0.740774 0.981107"
 xmlns:xlink="http://www.w3.org/1999/xlink">
 <defs>
  <style type="text/css">
   <![CDATA[
    .fil0 {fill:white}
   ]]>
  </style>
 </defs>
 <g id="PowerClip_x0020_Contents">
  <metadata id="CorelCorpID_0Corel-Layer"/>
  <g id="_306430184">
   <path id="_306430544" class="fil0" d="M0.539609 0.281508l0 -0.191741 0.101085 0 0 -0.0897674 -0.190814 0 0 0.249062c-0.000115879,0 -0.000231757,0 -0.000347636,0l0 0.0925871c0.116304,0.0342229 0.201475,0.141874 0.201475,0.269032 0,0.154775 -0.125844,0.28062 -0.28062,0.28062 -0.15466,0 -0.28062,-0.125844 -0.28062,-0.28062 0,-0.127158 0.085055,-0.234577 0.201281,-0.268993l0 -0.0926257 -0.000154505 0 0 -0.246204 -0.190698 0 0 0.0897674 0.100969 0 0 0.188882c-0.119278,0.0616089 -0.201166,0.185908 -0.201166,0.329173 0,0.204217 0.16617,0.370426 0.370387,0.370426 0.204217,0 0.370387,-0.166209 0.370387,-0.370426 0,-0.143265 -0.0817718,-0.267564 -0.201166,-0.329173z"/>
   <path id="_306430352" class="fil0" d="M0.112827 0.613771c0,0.143149 0.116149,0.259337 0.259337,0.259337 0.143265,0 0.259337,-0.116188 0.259337,-0.259337 -0.0954455,0.0310941 -0.177024,-0.0531883 -0.280736,-0.000579394 -0.103789,0.0525317 -0.153578,0.0607205 -0.237938,0.000579394zm0.427013 0.0487463c0.0212831,0 0.0385876,0.0173432 0.0385876,0.0385876 0,0.0212831 -0.0173046,0.0385876 -0.0385876,0.0385876 -0.0213217,0 -0.0385876,-0.0173046 -0.0385876,-0.0385876 0,-0.0212444 0.0172659,-0.0385876 0.0385876,-0.0385876zm-0.0895356 0.127505c0.0069141,0 0.0124763,0.00567806 0.0124763,0.0125922 0,0.0069141 -0.00556218,0.0125149 -0.0124763,0.0125149 -0.0069141,0 -0.0125922,-0.00560081 -0.0125922,-0.0125149 0.000115879,-0.0069141 0.00567806,-0.0125922 0.0125922,-0.0125922zm-0.0241028 -0.11499c0.0063347,0 0.0116265,0.00513729 0.0116265,0.0115106 0,0.00645058 -0.0052918,0.0116265 -0.0116265,0.0116265 -0.00637333,0 -0.0116265,-0.00517592 -0.0116265,-0.0116265 0,-0.00637333 0.00525317,-0.0115106 0.0116265,-0.0115106zm-0.0634629 0.101394c0.0192745,0 0.0349568,0.0156823 0.0349568,0.0348795 0,0.0192745 -0.0156823,0.0349568 -0.0349568,0.0349568 -0.0193131,0 -0.0349954,-0.0155664 -0.0349954,-0.0349568 0,-0.0193131 0.0156823,-0.0348795 0.0349954,-0.0348795zm-0.0259955 -0.0515274c0.00637333,0 0.0116265,0.00525317 0.0116265,0.0116265 0,0.0063347 -0.00525317,0.0116265 -0.0116265,0.0116265 -0.00637333,0 -0.0116265,-0.0052918 -0.0116265,-0.0116265 0,-0.00637333 0.00525317,-0.0116265 0.0116265,-0.0116265zm-0.0845142 -0.00297422c0,0.0132874 -0.0107381,0.0239096 -0.023871,0.0239096 -0.0131716,0 -0.0239096,-0.0106222 -0.0239096,-0.0239096 0,-0.0131329 0.0107381,-0.0237551 0.0239096,-0.0237551 0.0131329,0 0.023871,0.0106222 0.023871,0.0237551z"/>
  </g>
 </g>
</svg>
