<!DOCTYPE svg PUBLIC "-//W3C//DTD SVG 1.1//EN" "http://www.w3.org/Graphics/SVG/1.1/DTD/svg11.dtd">

<!-- Uploaded to: SVG Repo, www.svgrepo.com, Transformed by: SVG Repo Mixer Tools -->
<svg fill="#26a987" version="1.1" id="Layer_1" xmlns="http://www.w3.org/2000/svg" xmlns:xlink="http://www.w3.org/1999/xlink" viewBox="0 0 512 512" xml:space="preserve" width="800px" height="800px" stroke="#26a987">

<g id="SVGRepo_bgCarrier" stroke-width="0"/>

<g id="SVGRepo_tracerCarrier" stroke-linecap="round" stroke-linejoin="round"/>

<g id="SVGRepo_iconCarrier"> <g> <g> <path d="M463.495,265.593V29.642c0-10.401-8.463-18.863-18.863-18.863H180.551v16.168h264.081c1.461,0,2.695,1.234,2.695,2.695 v229.053H64.674V29.642c0-1.461,1.234-2.695,2.695-2.695h91.625V10.779H67.368c-10.401,0-18.863,8.463-18.863,18.863v235.951 L0,427.277v55.08c0,0.9,0.176,5.623,3.638,10.24c2.95,3.933,8.922,8.623,20.615,8.623h167.074v-16.168H24.253 c-4.595,0-7.745-1.176-8.084-3.003v-13.165h72.758v-16.168H16.168v-16.168h479.663v16.168h-72.758v16.168h72.758v13.474 c0,0.027-0.857,2.695-8.084,2.695H223.665v16.168h264.082c19.896,0,24.253-13.617,24.253-18.863v-55.082L463.495,265.593z M16.168,482.358v-0.251C16.179,482.267,16.168,482.358,16.168,482.358z M101.165,274.863H405.81l17.965,80.842H256H87.691 L101.165,274.863z M168.846,420.379H18.949l43.655-145.516h22.168l-16.168,97.01h112.368L168.846,420.379z M185.512,420.379 l12.126-48.505H256h58.362l12.126,48.505H185.512z M343.154,420.379l-12.126-48.505h112.903l-21.558-97.01h27.023l43.655,145.516 H343.154z"/> </g> </g> <g> <g> <rect x="196.716" y="452.716" width="118.568" height="16.168"/> </g> </g> <g> <g> <rect x="331.453" y="452.716" width="21.558" height="16.168"/> </g> </g> <g> <g> <rect x="158.989" y="452.716" width="21.558" height="16.168"/> </g> </g> <g> <g> <rect x="137.432" y="291.032" width="21.558" height="16.168"/> </g> </g> <g> <g> <rect x="169.768" y="291.032" width="21.558" height="16.168"/> </g> </g> <g> <g> <rect x="353.01" y="291.032" width="21.558" height="16.168"/> </g> </g> <g> <g> <rect x="320.674" y="291.032" width="21.558" height="16.168"/> </g> </g> <g> <g> <rect x="288.337" y="291.032" width="21.558" height="16.168"/> </g> </g> <g> <g> <rect x="256" y="291.032" width="21.558" height="16.168"/> </g> </g> <g> <g> <rect x="202.105" y="291.032" width="43.116" height="16.168"/> </g> </g> <g> <g> <rect x="121.263" y="323.368" width="269.474" height="16.168"/> </g> </g> <g> <g> <path d="M80.842,48.505v194.021h350.316V48.505H80.842z M414.989,226.358H97.011V64.674h317.979V226.358z"/> </g> </g> <g> <g> <polygon points="113.179,80.842 113.179,158.99 129.347,158.99 129.347,97.011 191.326,97.011 191.326,80.842 "/> </g> </g> <g> <g> <rect x="110.484" y="172.463" width="21.558" height="16.168"/> </g> </g> </g>

</svg>