<?xml version="1.0" encoding="UTF-8"?>
<!DOCTYPE svg PUBLIC "-//W3C//DTD SVG 1.1//EN" "http://www.w3.org/Graphics/SVG/1.1/DTD/svg11.dtd">
<!-- Creator: CorelDRAW X5 -->
<svg xmlns="http://www.w3.org/2000/svg" xml:space="preserve" width="27px" height="30px" style="shape-rendering:geometricPrecision; text-rendering:geometricPrecision; image-rendering:optimizeQuality; fill-rule:evenodd; clip-rule:evenodd"
viewBox="0 0 1.73444 1.92699"
 xmlns:xlink="http://www.w3.org/1999/xlink">
 <defs>
  <style type="text/css">
   <![CDATA[
    .fil0 {fill:white}
   ]]>
  </style>
 </defs>
 <g id="PowerClip_x0020_Contents">
  <metadata id="CorelCorpID_0Corel-Layer"/>
  <path class="fil0" d="M0.878297 0.802204c-0.0801142,0.0182836 -0.127075,0.0238977 -0.156056,0.0238977 -0.02936,0 -0.0403606,-0.00584166 -0.0484782,-0.0100901 -0.0311049,-0.0165387 -0.0536371,-0.0504507 -0.0822384,-0.0933907 -0.00789003,-0.0118351 -0.0166146,-0.024884 -0.0257943,-0.0379329l-7.58657e-005 0.347465c0,0.0361879 -0.0125937,0.068355 -0.0328499,0.0952873l0 0.71951c0,0.0442297 -0.0355052,0.0800383 -0.0792797,0.0800383 -0.0437745,0 -0.0792797,-0.0358086 -0.0792797,-0.0800383l0 -0.634389c-0.00568993,0.00053106 -0.0112281,0.000834523 -0.0167663,0.000834523 -0.00561406,0 -0.0111523,-0.000303463 -0.0167663,-0.000834523l0 0.634389c0,0.0442297 -0.0354293,0.0800383 -0.0792797,0.0800383 -0.0438504,0 -0.0792038,-0.0358086 -0.0792038,-0.0800383l-0.000151731 -0.71951c-0.0115316,-0.0154766 -0.0205596,-0.0325464 -0.0261737,-0.0511335 -0.00227597,0.000303463 -0.00447608,0.000379329 -0.00675205,0.000379329 -0.0222287,0 -0.0439262,-0.0113799 -0.0562924,-0.0320912 -0.00887629,-0.0147179 -0.0176767,-0.0284496 -0.0260978,-0.0415744 -0.0402847,-0.0626651 -0.0782175,-0.12184 -0.0634996,-0.214472 0.022608,-0.143083 0.0592511,-0.249219 0.163035,-0.301414 0.00348982,-0.00212424 0.0896733,-0.0424848 0.0896733,-0.0424848l0.0376294 -0.0319395 0.0566717 0.0568993 -0.0565958 0.381908c-0.000151731,0.00128972 0.000151731,0.0026553 0.000910389,0.00371742l0.0588718 0.0812522c0.000834523,0.00144145 0.0024277,0.00212424 0.00402088,0.00212424 0.00159318,0 0.00311049,-0.000682791 0.00394502,-0.00212424l0.0588718 -0.0812522c0.000834523,-0.00106212 0.00113799,-0.0024277 0.000910389,-0.00371742l-0.0565958 -0.381908 0.0566717 -0.0569751 0.0376294 0.0320153c0,0 0.0860317,0.0402847 0.0861076,0.0402847 0.0691895,0.0335326 0.117137,0.105681 0.155752,0.163642 0.00978668,0.0146421 0.0222287,0.0333809 0.0309532,0.0443814 0.0243529,-0.00189664 0.0732863,-0.0103177 0.117592,-0.020332 0.0355052,-0.00804177 0.0707827,0.0143386 0.0787486,0.0501472 0.00804177,0.0358086 -0.0142628,0.0713138 -0.0497679,0.0794314zm-0.543123 -0.802204l0.0446849 0c0.104846,0.00743484 0.148317,0.0689619 0.147255,0.167587 -0.00151731,0.151883 -0.0733621,0.242391 -0.169636,0.242391 -0.0963495,0 -0.168118,-0.0905078 -0.169712,-0.242391 -0.00106212,-0.0986254 0.0424848,-0.160153 0.147407,-0.167587zm-0.186023 0.729297c-0.00561406,0.0223045 -0.0110005,0.0488575 -0.0159318,0.0801901 -0.00440021,0.0278427 0.000303463,0.0471126 0.0160077,0.075714l-7.58657e-005 -0.155904zm1.16788 1.18942l-0.159773 0c-0.0156283,0 -0.0282979,-0.0128213 -0.0282979,-0.0286014l0 -0.67346c0,-0.0158559 0.0126696,-0.0286014 0.0282979,-0.0286014l0.159773 0c0.0156283,0 0.0282979,0.0127454 0.0282979,0.0286014l0 0.67346c0,0.0157801 -0.0126696,0.0286014 -0.0282979,0.0286014zm-0.332292 0l-0.159773 0c-0.0156283,0 -0.0283738,-0.0128213 -0.0283738,-0.0286014l0 -0.476209c0,-0.0157801 0.0127454,-0.0286014 0.0283738,-0.0286014l0.159773 0c0.0156283,0 0.0282979,0.0128213 0.0282979,0.0286014l0 0.476209c0,0.0157801 -0.0126696,0.0286014 -0.0282979,0.0286014zm0.664584 0l-0.159773 0c-0.0156283,0 -0.0282979,-0.0128213 -0.0282979,-0.0286014l0 -0.805011c0,-0.0158559 0.0126696,-0.0286014 0.0282979,-0.0286014l0.159773 0c0.0156283,0 0.0282979,0.0127454 0.0282979,0.0286014l0 0.805011c0,0.0157801 -0.0126696,0.0286014 -0.0282979,0.0286014zm0.0810246 -1.32575l-0.224487 0.399054c-0.00667618,0.0119109 -0.0201803,0.0182836 -0.0335326,0.0157042 -0.0133524,-0.00257943 -0.0235184,-0.0134282 -0.0254909,-0.0270082l-0.0145662 -0.104088c-0.30498,0.172822 -0.64281,0.255136 -0.657604,0.258702 -0.00455194,0.00106212 -0.00917975,0.00166905 -0.0137317,0.00189664 -0.035581,0.00166905 -0.067217,-0.0224563 -0.0754105,-0.0573545 -0.00948321,-0.0400571 0.0151731,-0.0804935 0.0549268,-0.0899767 0.00311049,-0.000758657 0.309684,-0.075714 0.588718,-0.226611l-0.0752588 -0.0301946c-0.0125178,-0.00500714 -0.0205596,-0.0176008 -0.0199527,-0.0313325 0.000682791,-0.0136558 0.0100143,-0.025415 0.0230632,-0.0291324l0.436987 -0.126241c0.0123661,-0.00356569 0.0256426,0.000758657 0.0336844,0.0110005 0.00789003,0.010166 0.00895215,0.024277 0.0026553,0.035581z"/>
 </g>
</svg>
