<?xml version="1.0" encoding="UTF-8"?>
<!DOCTYPE svg PUBLIC "-//W3C//DTD SVG 1.1//EN" "http://www.w3.org/Graphics/SVG/1.1/DTD/svg11.dtd">
<!-- Creator: CorelDRAW X5 -->
<svg xmlns="http://www.w3.org/2000/svg" xml:space="preserve" width="30px" height="30px" style="shape-rendering:geometricPrecision; text-rendering:geometricPrecision; image-rendering:optimizeQuality; fill-rule:evenodd; clip-rule:evenodd"
viewBox="0 0 6.46124 6.46022"
 xmlns:xlink="http://www.w3.org/1999/xlink">
 <defs>
  <style type="text/css">
   <![CDATA[
    .fil0 {fill:#423797}
   ]]>
  </style>
 </defs>
 <g id="PowerClip_x0020_Contents">
  <metadata id="CorelCorpID_0Corel-Layer"/>
  <g id="_309749376">
   <path id="_309747168" class="fil0" d="M6.09468 3.42955l-2.29781 0c-0.202741,0 -0.367324,0.164584 -0.367324,0.366561l0 2.29756c0,0.201977 0.164584,0.366561 0.367324,0.366561l2.29781 0c0.201977,0 0.366561,-0.164584 0.366561,-0.366561l0 -2.29756c0,-0.201977 -0.164584,-0.366561 -0.366561,-0.366561zm-1.39629 1.87503c0.0903047,0.0905591 0.199942,0.135584 0.328658,0.135584 0.176285,0 0.320264,-0.0694456 0.432191,-0.2091l0.229705 0.236827c-0.18239,0.205539 -0.397087,0.308054 -0.644598,0.308054 -0.247511,0 -0.451269,-0.0780945 -0.611274,-0.234538 -0.160259,-0.156443 -0.240389,-0.353588 -0.240389,-0.591687 0,-0.238354 0.0816558,-0.437278 0.244713,-0.59652 0.163312,-0.159496 0.363,-0.239117 0.59881,-0.239117 0.263537,0 0.484339,0.10048 0.661896,0.301185l-0.222837 0.252599c-0.113453,-0.140926 -0.25438,-0.211389 -0.423033,-0.211389 -0.134821,0 -0.250055,0.044262 -0.345702,0.132277 -0.0959011,0.0880153 -0.143724,0.206811 -0.143724,0.356131 0,0.149575 0.0452796,0.269388 0.135584,0.359693z"/>
   <path id="_482567296" class="fil0" d="M2.08184 3.0317l2.29756 0c0.201977,0 0.366561,-0.164584 0.366561,-0.367324l0 -2.29781c0,-0.201977 -0.164584,-0.366561 -0.366561,-0.366561l-2.29756 0c-0.201977,0 -0.366561,0.164584 -0.366561,0.366561l0 2.29781c0,0.202741 0.164584,0.367324 0.366561,0.367324zm0.975291 -2.31943l0.346974 0 0.694202 1.60666 -0.381569 0 -0.149575 -0.346974 -0.673343 0 -0.149575 0.346974 -0.381315 0 0.694202 -1.60666zm0.174504 0.478234l-0.202232 0.466532 0.402174 0 -0.199942 -0.466532z"/>
   <path id="_309118888" class="fil0" d="M2.66437 3.42955l-2.29781 0c-0.201977,0 -0.366561,0.164584 -0.366561,0.366561l0 2.29756c0,0.201977 0.164584,0.366561 0.366561,0.366561l2.29781 0c0.202741,0 0.367324,-0.164584 0.367324,-0.366561l0 -2.29756c0,-0.201977 -0.164584,-0.366561 -0.367324,-0.366561zm-0.622212 2.16935c-0.0887785,0.0994624 -0.243696,0.149321 -0.464243,0.149321l-0.70336 0 0 -1.60666 0.625011 0c0.108874,0 0.202741,0.0129734 0.281598,0.0391745 0.0788577,0.0259467 0.138382,0.0610511 0.17832,0.105568 0.0719894,0.0826734 0.107857,0.176285 0.107857,0.280581 0,0.125664 -0.0407007,0.219275 -0.121848,0.280326 -0.027473,0.0213679 -0.0465515,0.0351044 -0.0572354,0.040192 -0.0109383,0.00534197 -0.0300168,0.0142453 -0.0574898,0.0264555 0.0994624,0.0213679 0.178829,0.0663931 0.237591,0.134312 0.0592704,0.0684281 0.0885241,0.152882 0.0885241,0.254125 0,0.111927 -0.0381569,0.210881 -0.114725,0.296607zm-0.336799 -0.488409c-0.0544372,-0.0239117 -0.141435,-0.0356131 -0.260993,-0.0356131l-0.211389 0 0 0.369868 0.245985 0c0.102515,0 0.179592,-0.012719 0.230977,-0.0379026 0.0513847,-0.0251836 0.077077,-0.075042 0.077077,-0.149321 0,-0.0742788 -0.0272186,-0.123374 -0.0816558,-0.147031zm-0.0803839 -0.350535c0.0483321,-0.0213679 0.0724982,-0.0679193 0.0724982,-0.139146 0,-0.0712263 -0.0223854,-0.118286 -0.0666474,-0.141435 -0.0445164,-0.0228942 -0.119558,-0.0343412 -0.22538,-0.0343412l-0.172469 0 0 0.346974 0.17018 0c0.0994624,0 0.173487,-0.0106839 0.221819,-0.0320518z"/>
  </g>
 </g>
</svg>
