<?xml version="1.0" encoding="UTF-8"?>
<!DOCTYPE svg PUBLIC "-//W3C//DTD SVG 1.1//EN" "http://www.w3.org/Graphics/SVG/1.1/DTD/svg11.dtd">
<!-- Creator: CorelDRAW X5 -->
<svg xmlns="http://www.w3.org/2000/svg" xml:space="preserve" width="26px" height="30px" style="shape-rendering:geometricPrecision; text-rendering:geometricPrecision; image-rendering:optimizeQuality; fill-rule:evenodd; clip-rule:evenodd"
viewBox="0 0 0.956629 1.10382"
 xmlns:xlink="http://www.w3.org/1999/xlink">
 <defs>
  <style type="text/css">
   <![CDATA[
    .fil0 {fill:#26a987}
   ]]>
  </style>
 </defs>
 <g id="PowerClip_x0020_Contents">
  <metadata id="CorelCorpID_0Corel-Layer"/>
  <path class="fil0" d="M0.56134 0.801704l-0.124419 -0.124419c0.0375473,-0.0252923 0.0755726,-0.0558429 0.112251,-0.0906088l0.140846 0.140846c-0.0386337,0.0338534 -0.0824823,0.0585807 -0.128678,0.0741819zm0.395289 -0.404068l0 0.086915c-0.00982139,0.118117 -0.0597975,0.233497 -0.150015,0.323715 -0.0861762,0.0861762 -0.197253,0.138325 -0.316935,0.149754l0 0.0743123 0.123028 0c0.019947,0 0.0361566,0.0162096 0.0361566,0.0361566 0,0.0173395 -0.0122116,0.0318109 -0.0284646,0.0353309l-0.333797 0c-0.0162531,-0.00352006 -0.0284646,-0.0179914 -0.0284646,-0.0353309 0,-0.019947 0.0162096,-0.0361566 0.0361566,-0.0361566l0.123072 0 0 -0.0724002c-0.119291,-0.00495415 -0.231281,-0.050063 -0.320412,-0.128851l-0.035244 0.035244c-0.00704011,0.00699665 -0.01634,0.0105602 -0.025553,0.0105602 -0.00925644,0 -0.0185129,-0.00356351 -0.0255965,-0.0105602 -0.0140802,-0.0141671 -0.0140802,-0.0370692 0,-0.0511929l0.0596671 -0.0596237c0.0132111,-0.0132111 0.0346791,-0.0147755 0.0482378,-0.00260745 0.0885229,0.0794837 0.201903,0.135196 0.320977,0.135196 8.6915e-005,0 0.000217287,0 0.00034766,0 0.119204,-8.6915e-005 0.231324,-0.0465864 0.315675,-0.130937 0.174134,-0.174134 0.169354,-0.46191 -0.00451958,-0.635739 -0.0141237,-0.0141671 -0.0141237,-0.0370692 0,-0.0511495l0.0596671 -0.0596671c0.0141237,-0.0141237 0.0370258,-0.0141237 0.0511495,0 0.0140802,0.0141237 0.0140802,0.0370258 0,0.051106l-0.0345052 0.0345052c0.0771805,0.0864369 0.12029,0.192734 0.129373,0.301421zm-0.556169 0.243188l-0.159489 -0.159489c0.0237278,-0.0362435 0.0538004,-0.0744427 0.0901308,-0.112729l0.182261 0.182304c-0.0369389,0.0348529 -0.0754422,0.0654035 -0.112903,0.0899135zm-0.168224 0.0658815c-0.0192082,0 -0.0336795,-0.00464995 -0.0429794,-0.0139933 -0.025553,-0.025553 -0.0168615,-0.0886967 0.024988,-0.166573l0.141367 0.141411c-0.0464995,0.0250315 -0.0895224,0.0391552 -0.123376,0.0391552zm0.49359 -0.0149928l-0.140889 -0.140802c0.0345922,-0.0364608 0.0652731,-0.0743992 0.0907392,-0.112164l0.124332 0.124332c-0.0156012,0.0462388 -0.0403285,0.0900439 -0.0741819,0.128634zm-0.521229 -0.246795l-0.124332 -0.124288c0.0156012,-0.0462388 0.0403285,-0.0900873 0.0741819,-0.128721l0.140846 0.140889c-0.0345922,0.0364174 -0.0652731,0.0743557 -0.0906958,0.11212zm0.609882 0.0610143l-0.111382 -0.111338c0.010734,-0.0188605 0.0200339,-0.0375038 0.0277259,-0.0557125 0.0172961,-0.0410673 0.025553,-0.0779627 0.0246838,-0.109252 0.0555387,0.0823954 0.0751814,0.181783 0.0589718,0.276303zm-0.326974 -0.326974l-0.111512 -0.111468c0.0944766,-0.0162096 0.19382,0.00343314 0.276259,0.0588849 -0.0452392,0 -0.105515,0.0189475 -0.164747,0.0525835zm-0.259441 0.578332c0.00134718,0 0.00273782,4.34575e-005 0.00417192,4.34575e-005 0.0451958,0 0.101299,-0.0189909 0.160488,-0.0526705l0.111468 0.111468c-0.0944331,0.0162096 -0.193777,-0.00338968 -0.276129,-0.0588414zm-0.0786146 -0.212507c-0.0172961,0.0410239 -0.025553,0.0779193 -0.0247273,0.109209 -0.0554952,-0.0823954 -0.075138,-0.181783 -0.0589283,-0.276259l0.111338 0.111338c-0.0106905,0.0188171 -0.0199904,0.0374603 -0.0276824,0.0557125zm0.181609 -0.247795l-0.140846 -0.140889c0.0386337,-0.0338099 0.0824388,-0.0585372 0.128678,-0.0741385l0.124419 0.124462c-0.0375473,0.0252488 -0.0755726,0.0557994 -0.112251,0.0905654zm0.33497 0.0605363l-0.141411 -0.141454c0.046543,-0.024988 0.0895659,-0.0391552 0.123419,-0.0391552 0.0192082,0 0.0336361,0.00473686 0.0429794,0.0140368 0.025553,0.0255095 0.016818,0.0886967 -0.024988,0.166573zm-0.116901 0.157577l-0.182261 -0.182304c0.0368954,-0.0349398 0.0754422,-0.0654035 0.112903,-0.089957l0.159489 0.159489c-0.0237278,0.0362435 -0.0538004,0.0744427 -0.0901308,0.112772z"/>
 </g>
</svg>
