<?xml version="1.0" encoding="UTF-8"?>
<!DOCTYPE svg PUBLIC "-//W3C//DTD SVG 1.1//EN" "http://www.w3.org/Graphics/SVG/1.1/DTD/svg11.dtd">
<!-- Creator: CorelDRAW X5 -->
<svg xmlns="http://www.w3.org/2000/svg" xml:space="preserve" width="30px" height="22px" style="shape-rendering:geometricPrecision; text-rendering:geometricPrecision; image-rendering:optimizeQuality; fill-rule:evenodd; clip-rule:evenodd"
viewBox="0 0 2.12594 1.52816"
 xmlns:xlink="http://www.w3.org/1999/xlink">
 <defs>
  <style type="text/css">
   <![CDATA[
    .fil0 {fill:#26a987}
   ]]>
  </style>
 </defs>
 <g id="PowerClip_x0020_Contents">
  <metadata id="CorelCorpID_0Corel-Layer"/>
  <path class="fil0" d="M1.00631 0.250342l0.334961 -0.000669587c0.00133917,0.0832799 0.000334793,0.165388 0.000334793,0.246826 0,0.158692 -0.00108808,0.140111 -0.101442,0.271936 -0.0369947,0.0487124 -0.144798,0.154758 -0.196859,0.179031 -0.023854,-0.0267835 -0.0345674,-0.0496331 -0.0613509,-0.0759144 -0.0265324,-0.0261976 -0.0537343,-0.0365762 -0.0817733,-0.0612672 0.000920682,-0.00133917 0.00259465,-0.0048545 0.00309684,-0.00376643l0.0127221 -0.0143961c0.00669587,-0.00728176 0.00903942,-0.0100438 0.0160701,-0.0179951 0.164635,-0.189744 0.146891,-0.325419 -0.0214268,-0.513489 -0.10772,-0.120358 -0.414391,-0.273359 -0.610328,-0.159194 -0.0595932,0.0346511 -0.104623,0.0847864 -0.135591,0.144129 -0.027202,0.0523952 -0.0709762,0.139274 -0.0882181,0.195101l0.195938 0.163212c0.0389197,-0.0402589 0.0791786,-0.225316 0.169991,-0.298887 0.186229,-0.150992 0.414976,-0.0236029 0.392043,0.174595 -0.00912312,0.0790112 -0.0407611,0.106046 -0.106966,0.131072 -0.103619,0.0390871 -0.284072,0.0659543 -0.402087,0.076584 0.0242725,0.0512234 0.142455,0.167313 0.163714,0.213682 0.0847864,-0.000669587 0.282315,-0.105209 0.368105,0.0476244 0.031638,0.056329 0.0254443,0.142455 0.000167397,0.201043 -0.0333119,0.0770862 -0.297966,0.216779 -0.520269,0.0530648 -0.17041,-0.125464 -0.117345,-0.113076 -0.242139,-0.248751l-0.0949976 0.00435231c0.0361577,0.159864 0.182881,0.348101 0.304411,0.447619 0.182379,0.149402 0.583461,0.160785 0.760567,-0.0896409 0.0216779,-0.0306336 0.0376643,-0.0642803 0.0479592,-0.102028 0.0279552,-0.102447 -0.0214268,-0.0453645 0.138604,-0.161454 0.0247747,-0.0179114 0.0651173,-0.0530648 0.0898083,-0.0645314l0.000251095 0.417571 0.316296 0.122367 0.00117178 -1.27657 0.466869 -0.00234355c-0.00778395,-0.0225149 -0.129147,-0.219122 -0.149234,-0.248919l-1.08272 -0.000334793 0.112323 0.250342z"/>
 </g>
</svg>
