<?xml version="1.0" encoding="UTF-8"?>
<!DOCTYPE svg PUBLIC "-//W3C//DTD SVG 1.1//EN" "http://www.w3.org/Graphics/SVG/1.1/DTD/svg11.dtd">
<!-- Creator: CorelDRAW X5 -->
<svg xmlns="http://www.w3.org/2000/svg" xml:space="preserve" width="40px" height="25px" style="shape-rendering:geometricPrecision; text-rendering:geometricPrecision; image-rendering:optimizeQuality; fill-rule:evenodd; clip-rule:evenodd"
viewBox="0 0 10.7495 6.69132"
 xmlns:xlink="http://www.w3.org/1999/xlink">
 <defs>
  <style type="text/css">
   <![CDATA[
    .fil0 {fill:white}
   ]]>
  </style>
 </defs>
 <g id="PowerClip_x0020_Contents">
  <metadata id="CorelCorpID_0Corel-Layer"/>
  <path class="fil0" d="M10.5513 5.91117l-0.0793425 -2.5456 -0.0426743 -0.894263c0.00537379,-0.0287656 0.0132764,-0.0818713 -0.0101154,-0.137506 -0.0293978,-0.0581634 -0.092935,-0.0979927 -0.137506,-0.121701 -0.00821875,-0.172278 -0.0218113,-0.29872 -0.0401454,-0.29872 -0.0183341,0 -0.0344555,0.123913 -0.042042,0.295875 -0.0423581,0.0237079 -0.109056,0.0638533 -0.138138,0.124546 -0.0262368,0.0556346 -0.0154892,0.10874 -0.0101154,0.137506l-0.122017 3.43986 -0.642643 0 -0.0790264 -2.57468c0,0 0,-0.0976766 -0.0192824,-0.137506 -0.018018,-0.0401454 -0.0553185,-0.0635372 -0.0866129,-0.0821875 -0.00537379,-0.203572 -0.0243401,-0.359412 -0.0426743,-0.359412 -0.020863,0 -0.0373005,0.15015 -0.0426743,0.351509 -0.0338233,0.0161214 -0.0793425,0.048048 -0.100205,0.0900901 -0.0183341,0.0398293 -0.0183341,0.137506 -0.0183341,0.137506l-0.0790264 2.57468 -0.556346 0 0 -1.84479 -0.0502608 -0.00537379 0 -0.348664 -0.346452 0 0 0.312312 -0.327801 -0.00252884 -0.0373005 0 0 -0.534535 -0.113798 0c0,-0.0426743 -0.0129603,-0.134977 -0.0923028,-0.235815 -0.0771298,-0.0948317 -0.198198,-0.163743 -0.269954,-0.201043 -0.00284495,-0.232338 -0.0265529,-0.418208 -0.0556346,-0.418208 -0.0290817,0 -0.0502608,0.183025 -0.0556346,0.415363 -0.0711238,0.0316106 -0.198514,0.103683 -0.277541,0.203888 -0.0186502,0.0189663 -0.0319267,0.0426743 -0.0429904,0.0610084l0 -0.092935 -0.147621 0c0.0527896,-0.0474158 0.542121,-0.523471 0.459934,-1.03967 -0.0790264,-0.502608 -0.573416,-0.812075 -0.963174,-1.08993 -0.269322,-0.190296 -0.415047,-0.322744 -0.491544,-0.428639l-0.0107476 0c0.00537379,-0.0556346 0.00790264,-0.119172 0.00790264,-0.182709 0,-0.232338 -0.0290817,-0.418208 -0.0581634,-0.46025l0 -0.00252884c-0.00821875,-0.00537379 -0.0107476,-0.0161214 -0.0126442,-0.0161214l-0.00316106 0c-0.00252884,0 -0.00790264,0.0107476 -0.0107476,0.0161214l0 0.00252884c-0.0344555,0.042042 -0.0581634,0.227912 -0.0581634,0.46025 0,0.0635372 0,0.124546 0.00537379,0.182709l-0.0107476 0c-0.0764976,0.105895 -0.222222,0.238344 -0.49186,0.428639 -0.389126,0.277857 -0.880986,0.587324 -0.962858,1.08993 -0.0793425,0.5162 0.406828,0.992255 0.462462,1.03967l-0.150466 0 0 0.092935c-0.0135925,-0.0183341 -0.0233918,-0.042042 -0.0426743,-0.0610084 -0.0790264,-0.100205 -0.20863,-0.172278 -0.277541,-0.203888 -0.00284495,-0.232338 -0.0265529,-0.415363 -0.0556346,-0.415363 -0.0290817,0 -0.0527896,0.18587 -0.0553185,0.418208 -0.0714399,0.0373005 -0.193141,0.106211 -0.267741,0.201043 -0.0818713,0.100838 -0.0919867,0.190296 -0.0948317,0.235815l-0.113798 0 0 0.528845 -0.365102 0.00821875 0 -0.312312 -0.346768 0 0 0.348664 -0.0474158 0.00537379 0 1.84479 -0.558242 0 -0.0796586 -2.57183c0,0 0,-0.100522 -0.0183341,-0.137822 -0.0211791,-0.0445709 -0.0692271,-0.0736526 -0.100205,-0.0900901 -0.0056899,-0.201043 -0.0218113,-0.354038 -0.0426743,-0.354038 -0.0211791,0 -0.0373005,0.15584 -0.042042,0.359412 -0.0319267,0.0186502 -0.068911,0.042042 -0.0872451,0.0847163 -0.0189663,0.0373005 -0.0189663,0.137822 -0.0189663,0.137822l-0.0821875 2.57183 -0.640114 0 -0.121701 -3.43986c0.00537379,-0.0287656 0.0161214,-0.0847163 -0.0101154,-0.137506 -0.0290817,-0.0581634 -0.0954639,-0.100838 -0.138138,-0.121701 -0.00758653,-0.174806 -0.0237079,-0.295875 -0.042042,-0.295875 -0.0183341,0 -0.0347716,0.121068 -0.0401454,0.295875 -0.0445709,0.0237079 -0.108424,0.0635372 -0.13719,0.121701 -0.024024,0.0527896 -0.0158053,0.10874 -0.0104315,0.137506l-0.0426743 0.894263 -0.0790264 2.5456 -0.198514 0 0 0.780149 10.7495 0 0 -0.780149 -0.198198 0zm-4.74411 -0.0110637l-0.864865 0 0 -0.917654c0,0 -0.00537379,-0.24593 0.203888,-0.38881 0.0894579,-0.0610084 0.158369,-0.0875612 0.22728,-0.0900901 0.0714399,0.00252884 0.140351,0.0290817 0.229809,0.0900901 0.209262,0.14288 0.203888,0.38881 0.203888,0.38881l0 0.917654z"/>
 </g>
</svg>
