<?xml version="1.0" encoding="UTF-8"?>
<!DOCTYPE svg PUBLIC "-//W3C//DTD SVG 1.1//EN" "http://www.w3.org/Graphics/SVG/1.1/DTD/svg11.dtd">
<!-- Creator: CorelDRAW X5 -->
<svg xmlns="http://www.w3.org/2000/svg" xml:space="preserve" width="25px" height="25px" style="shape-rendering:geometricPrecision; text-rendering:geometricPrecision; image-rendering:optimizeQuality; fill-rule:evenodd; clip-rule:evenodd"
viewBox="0 0 0.885737 0.885863"
 xmlns:xlink="http://www.w3.org/1999/xlink">
 <defs>
  <style type="text/css">
   <![CDATA[
    .fil0 {fill:#26a987}
   ]]>
  </style>
 </defs>
 <g id="PowerClip_x0020_Contents">
  <metadata id="CorelCorpID_0Corel-Layer"/>
  <path class="fil0" d="M0.6622 0.885863l-0.438998 0c-0.120096,-0.00548172 -0.216633,-0.101307 -0.223202,-0.221152l0 -0.443308c0.00673708,-0.123402 0.108923,-0.221403 0.233998,-0.221403l0.417406 0c0.129427,0 0.234333,0.104948 0.234333,0.234375l0 0.417406c0,0.125787 -0.0991313,0.228391 -0.223537,0.234082zm-0.247724 -0.801043l-0.180478 0c-0.0824769,0 -0.149555,0.0670779 -0.149555,0.149555l0 0.182571 0.330033 0 0 -0.332125zm0 0.388658l-0.330033 0 0 0.178344c0,0.0824351 0.0670779,0.149597 0.149555,0.149597l0.180478 0 0 -0.327941zm0.386482 -0.239104c0,-0.0824769 -0.0670779,-0.149555 -0.149555,-0.149555l-0.180478 0 0 0.332125 0.330033 0 0 -0.182571zm0 0.239062l-0.330033 0 0 0.327983 0.180478 0c0.0824769,0 0.149555,-0.0671616 0.149555,-0.149638l0 -0.178344zm-0.618556 -0.194036l0 -0.0406317 0.145035 0 0 0.0406317 -0.145035 0zm0.0925198 0.371962l0 0.0852805 -0.0380791 0 0 -0.0852805 -0.0810542 0 0 -0.0364472 0.0810542 0 0 -0.084611 0.0380791 0 0 0.084611 0.0810542 0 0 0.0364472 -0.0810542 0zm0.380164 -0.391964l0.0573279 0.0573279 -0.0257766 0.0257766 -0.0573279 -0.0573279 -0.0603408 0.0604245 -0.0269483 -0.0269483 0.0603826 -0.0603826 -0.0573279 -0.0573279 0.0258185 -0.0257766 0.0572861 0.0573279 0.0598386 -0.0597968 0.0269065 0.0269065 -0.0598386 0.0597968zm-0.0986292 0.351542l0 -0.0367401 0.144031 0 0 0.0367401 -0.144031 0zm0 0.0818492l0 -0.0367401 0.144031 0 0 0.0367401 -0.144031 0z"/>
 </g>
</svg>
