<!DOCTYPE svg PUBLIC "-//W3C//DTD SVG 1.1//EN" "http://www.w3.org/Graphics/SVG/1.1/DTD/svg11.dtd">

<!-- Uploaded to: SVG Repo, www.svgrepo.com, Transformed by: SVG Repo Mixer Tools -->
<svg fill="#26a987" version="1.1" id="Capa_1" xmlns="http://www.w3.org/2000/svg" xmlns:xlink="http://www.w3.org/1999/xlink" width="800px" height="800px" viewBox="0 0 122.562 122.562" xml:space="preserve" stroke="#26a987">

<g id="SVGRepo_bgCarrier" stroke-width="0"/>

<g id="SVGRepo_tracerCarrier" stroke-linecap="round" stroke-linejoin="round"/>

<g id="SVGRepo_iconCarrier"> <g> <g> <path d="M59.375,14.197c0.749,6.289,6.094,11.168,12.583,11.168c7.005,0,12.683-5.679,12.683-12.683 C84.641,5.678,78.963,0,71.958,0c-6.579,0-11.986,5.011-12.617,11.424c0.056,0.517,0.088,1.041,0.088,1.573 C59.428,13.402,59.407,13.801,59.375,14.197z"/> <path d="M71.978,25.815c-1.275-0.01-3.083,0.25-3.083,0.25c-0.011,0.002-0.021,0.003-0.029,0.005 c-2.404,0.575-4.738,1.81-6.54,3.548c0.58,0.043,1.166,0.072,1.771,0.072c4.424,0,9.026-1.601,10.318-2.099 c0,0,1.405-0.707,1.067-1.385c-0.122-0.033-0.241-0.032-0.363-0.062C75.118,26.145,73.254,25.824,71.978,25.815z"/> <path d="M84.344,34.701c2.106-2.477,1.697-5.343,0.358-7.084c-1.66-2.155-4.752-2.559-6.902-0.9 c-0.672,0.515-1.173,1.169-1.493,1.889c-3.19,1.765-13.542,4.682-21.971,0.128c-0.163-0.088-0.33-0.164-0.496-0.232 c-1.56-1.154-3.372-1.99-5.227-2.433c-0.011-0.002-0.021-0.003-0.032-0.005c0,0-1.598-0.257-3.04-0.252 c-1.439,0.004-3.179,0.287-3.179,0.287c-1.585,0.39-3.143,1.06-4.533,1.973c-0.169,0.079-0.345,0.145-0.507,0.245 c-6.228,3.819-25.176,15.44-11.283,40.974c0.893,1.641,2.582,2.571,4.328,2.571c0.796,0,1.603-0.194,2.349-0.601 c0.386-0.207,0.726-0.465,1.027-0.752l0.007,43.266l-0.003,2.961c-0.002,3.214,2.557,5.82,5.77,5.824h0.005 c3.211,0,5.861-2.603,5.863-5.813l-0.008-40.444c0.047,0,0.094,0.006,0.143,0.006c0.229,0,0.458-0.019,0.685-0.029l-0.011,12.76 l0.016,0.008v27.694c0,3.214,2.604,5.819,5.818,5.819c3.213,0,5.819-2.604,5.819-5.819V72.283L57.85,69.6 c0-0.268-0.023-0.527-0.06-0.785c0.451-1.137,0.708-2.372,0.708-3.697v-24.66c2.086,0.381,4.169,0.562,6.199,0.562 C73.815,41.02,81.865,37.611,84.344,34.701z M32.538,59.962c-2.303-6.019-1.881-10.522,0-14.078V59.962z"/> <circle cx="45.518" cy="12.682" r="12.682"/> <path d="M97.512,15.637c-2.667-0.514-5.247,1.229-5.769,3.895c-0.748,3.843-3.828,14.401-9.206,18.808 c-4.037,2.596-10.966,4.785-18.4,4.785c-1.471,0-2.945-0.091-4.41-0.27c0,0-0.408,23.324-0.349,24.214 c0.058,0.89,0.208,1.496,0.307,1.745c-0.034,0.256-0.058,0.515-0.058,0.781l0.002,47.146c0,3.213,2.605,5.819,5.818,5.818 c3.216,0,5.819-2.605,5.819-5.819l-0.003-40.462c0.23,0.011,0.461,0.029,0.692,0.029c0.045,0,0.091-0.004,0.138-0.006 l-0.002,40.439c0,3.214,2.604,5.819,5.818,5.819c3.213,0,5.818-2.604,5.818-5.819l0.003-47.77 c1.123-0.502,0.998-2.586,0.998-2.586l-0.05-17.257l3.021-2.321c9.946-7.114,13.354-23.554,13.711-25.41 C101.926,18.729,100.18,16.153,97.512,15.637z"/> </g> </g> </g>

</svg>