<!DOCTYPE svg PUBLIC "-//W3C//DTD SVG 1.1//EN" "http://www.w3.org/Graphics/SVG/1.1/DTD/svg11.dtd">
<!-- Uploaded to: SVG Repo, www.svgrepo.com, Transformed by: SVG Repo Mixer Tools -->
<svg height="800px" width="800px" version="1.1" id="_x32_" xmlns="http://www.w3.org/2000/svg" xmlns:xlink="http://www.w3.org/1999/xlink" viewBox="0 0 512 512" xml:space="preserve" fill="#26a987" stroke="#26a987">
<g id="SVGRepo_bgCarrier" stroke-width="0"/>
<g id="SVGRepo_tracerCarrier" stroke-linecap="round" stroke-linejoin="round"/>
<g id="SVGRepo_iconCarrier"> <style type="text/css"> .st0{fill:#26a987;} </style> <g> <path class="st0" d="M128.082,97.44c26.912,0,48.716-21.821,48.716-48.716C176.798,21.804,154.994,0,128.082,0 c-26.921,0-48.724,21.804-48.724,48.724C79.358,75.62,101.161,97.44,128.082,97.44z"/> <path class="st0" d="M361.779,97.44c26.912,0,48.725-21.821,48.725-48.716C410.504,21.804,388.692,0,361.779,0 c-26.916,0-48.72,21.804-48.72,48.724C313.059,75.62,334.863,97.44,361.779,97.44z"/> <path class="st0" d="M449.178,341.339c2.836-3.633,4.605-8.146,4.605-13.113V164.461c0-23.607-25.687-49.295-49.294-49.295h-42.71 h-19.664c-25.859,0-49.337,15.076-60.096,38.59l-37.089,81.032l-37.092-81.032c-10.755-23.515-34.236-38.59-60.092-38.59h-19.664 H85.368c-23.607,0-49.291,25.688-49.291,49.295v163.765c0,11.804,9.56,21.376,21.367,21.376c5.81,0,0,0,14.916,0l8.125,139.654 c0,12.558,10.189,22.743,22.752,22.743c5.298,0,15.071,0,24.844,0c9.769,0,19.547,0,24.845,0c12.563,0,22.751-10.185,22.751-22.743 l8.12-139.654l3.574-131.333l42.823,93.573c1.292,2.81,6.283,9.27,14.543,9.27c8.686,0,13.632-6.46,14.928-9.27l42.818-93.573 l2.043,75.158c-9.673,11.846-53.514,68.38-58.921,126.324h70.784l10.688,72.592c0,9.152,7.433,16.577,16.581,16.577 c3.876,0,10.99,0,18.121,0c7.122,0,14.245,0,18.104,0c9.161,0,16.593-7.425,16.593-16.577l10.688-72.592h68.758 C473.288,391.64,461.611,363.856,449.178,341.339z"/> </g> </g>
</svg>