<?xml version="1.0" encoding="UTF-8"?>
<!DOCTYPE svg PUBLIC "-//W3C//DTD SVG 1.1//EN" "http://www.w3.org/Graphics/SVG/1.1/DTD/svg11.dtd">
<!-- Creator: CorelDRAW X5 -->
<svg xmlns="http://www.w3.org/2000/svg" xml:space="preserve" width="27px" height="30px" style="shape-rendering:geometricPrecision; text-rendering:geometricPrecision; image-rendering:optimizeQuality; fill-rule:evenodd; clip-rule:evenodd"
viewBox="0 0 1.70516 1.92922"
 xmlns:xlink="http://www.w3.org/1999/xlink">
 <defs>
  <style type="text/css">
   <![CDATA[
    .fil0 {fill:#423797}
   ]]>
  </style>
 </defs>
 <g id="PowerClip_x0020_Contents">
  <metadata id="CorelCorpID_0Corel-Layer"/>
  <path class="fil0" d="M1.44699 0.957699c0.0328879,-0.031141 0.0634213,-0.0623579 0.0900051,-0.0928913 0.152515,-0.17363 0.194821,-0.315511 0.126539,-0.42215 -0.0287864,-0.0446607 -0.0894734,-0.098284 -0.214873,-0.098284 -0.0788399,0 -0.179478,0.022938 -0.291966,0.0629656 -0.0488382,-0.214265 -0.138312,-0.407339 -0.304422,-0.407339 -0.168921,0 -0.25847,0.200138 -0.306093,0.418505 -0.113019,-0.0382806 -0.214265,-0.0599274 -0.293105,-0.0599274 -0.133071,0 -0.194897,0.0565095 -0.223835,0.103525 -0.0935749,0.15373 0.052484,0.347944 0.228469,0.509193 -0.0323563,0.0312169 -0.0629656,0.0623579 -0.090081,0.0930432 -0.152363,0.173706 -0.194897,0.315587 -0.126615,0.422074 0.0289383,0.0448126 0.090157,0.0984359 0.215556,0.0984359 0.0789158,0 0.17963,-0.0230899 0.292042,-0.0629656 0.0482306,0.213658 0.137704,0.407339 0.303663,0.407339 0.168997,0 0.25847,-0.200138 0.306701,-0.418732 0.112563,0.0382806 0.213734,0.0601553 0.293257,0.0601553 0.132463,0 0.194897,-0.0565095 0.223683,-0.103677 0.0935749,-0.153578 -0.052408,-0.348399 -0.228924,-0.509269zm-1.31468 -0.432632c0.0189125,-0.0312169 0.0612186,-0.0458 0.120766,-0.0458 0.0694976,0 0.163072,0.0211151 0.270243,0.0587881 -0.0129881,0.0824097 -0.0206594,0.163072 -0.0253685,0.231962 -0.0536233,0.0400276 -0.103677,0.0801311 -0.150692,0.12069 -0.170136,-0.154186 -0.25847,-0.29432 -0.214949,-0.365641zm0.359185 0.484508l-0.0518763 -0.0399516 0.0512687 -0.0424581 0 0.0370654 0.000607629 0.0453443zm-0.234925 0.454583c-0.0553702,0 -0.0953978,-0.0135957 -0.113703,-0.0429898 -0.0453443,-0.0701052 0.0401035,-0.212518 0.206594,-0.371489 0.0518763,0.0423821 0.102537,0.0812704 0.149097,0.113627 0.00470913,0.0710926 0.0129881,0.154186 0.0263559,0.239026 -0.106487,0.039344 -0.200138,0.0618263 -0.268344,0.0618263zm0.82235 -0.784145l-0.0382047 -0.0241533 -0.0659278 -0.0382806c0.0312169,-0.0159503 0.0618263,-0.0305334 0.0911444,-0.0441291 0.00531675,0.0341032 0.00957016,0.0701052 0.0129881,0.106563zm-0.226646 -0.559323c0.0777765,0 0.147274,0.130109 0.191403,0.331462 -0.0635732,0.0271154 -0.128969,0.0594717 -0.196036,0.0960054 -0.0647885,-0.0330398 -0.127222,-0.0618263 -0.188441,-0.0871188 0.044205,-0.206138 0.114234,-0.340348 0.193074,-0.340348zm-0.214873 0.461494l0.0848402 0.0382806 -0.0653961 0.0394959 -0.0312169 0.0217227c0.00303815,-0.0341032 0.00706369,-0.0676747 0.0117728,-0.0994993zm-0.0117728 0.667025l0.0382806 0.0241533 0.0660037 0.0382806c-0.0312169,0.0159503 -0.0612186,0.0300017 -0.0912963,0.0435214 -0.00470913,-0.0334956 -0.00941825,-0.0694976 -0.0129881,-0.105955zm0.226646 0.559323c-0.0776246,0 -0.147046,-0.130109 -0.191251,-0.331462 0.0635732,-0.0277231 0.128893,-0.0594717 0.196112,-0.0960054 0.0646365,0.0330398 0.127602,0.0618263 0.188365,0.0871188 -0.0436733,0.206062 -0.113627,0.340348 -0.193226,0.340348zm0.214949 -0.461646c-0.0277231,-0.0117728 -0.0553702,-0.0246849 -0.0842326,-0.0381287l0.0653961 -0.0401035 0.031141 -0.021267c-0.00341791,0.0342551 -0.00767132,0.0678266 -0.0123045,0.0994993zm0.0234697 -0.25247c-0.0352425,0.0247609 -0.070485,0.0488382 -0.107702,0.0729914 -0.0429898,0.0277231 -0.0853719,0.0530156 -0.12707,0.0771689 -0.042534,-0.0235456 -0.0854478,-0.0477748 -0.129045,-0.0742067 -0.0388883,-0.0236216 -0.0759536,-0.0477748 -0.112411,-0.0724598 -0.00182289,-0.0435214 -0.00288624,-0.0877265 -0.00288624,-0.133678 0,-0.0441291 0.00106335,-0.0871188 0.00288624,-0.129425 0.0347868,-0.0247609 0.0701052,-0.0488382 0.107778,-0.0729914 0.0423062,-0.0277231 0.0846883,-0.0530156 0.126615,-0.0771689 0.0429138,0.0235456 0.0859036,0.0476229 0.128817,0.0742067 0.0388883,0.0234697 0.0765613,0.0477748 0.112411,0.0718521 0.00182289,0.0441291 0.00364577,0.0883341 0.00364577,0.133526 0,0.0447367 -0.00182289,0.0877265 -0.00303815,0.130185zm0.35797 -0.629352c0.0552943,0 0.0947901,0.0135957 0.113627,0.0429898 0.0447367,0.0701052 -0.0399516,0.212518 -0.207202,0.370882 -0.0518763,-0.0417745 -0.102537,-0.0806628 -0.148945,-0.113019 -0.00463317,-0.0713205 -0.0129881,-0.154186 -0.0265078,-0.239026 0.107171,-0.0394959 0.200138,-0.0618263 0.269028,-0.0618263zm-0.234849 0.453975l0.0512687 0.0405592 -0.0512687 0.0423062 0.000607629 -0.037673 -0.000607629 -0.0451924zm0.359185 0.484964c-0.0190644,0.031141 -0.0613705,0.045952 -0.120766,0.045952 -0.0694216,0 -0.16368,-0.021267 -0.270775,-0.05894 0.0129121,-0.0822578 0.0205834,-0.163072 0.0252926,-0.23257 0.054079,-0.039268 0.103525,-0.0799792 0.1513,-0.119931 0.169529,0.154186 0.25847,0.29432 0.214949,0.365489z"/>
 </g>
</svg>
