<!DOCTYPE svg PUBLIC "-//W3C//DTD SVG 1.1//EN" "http://www.w3.org/Graphics/SVG/1.1/DTD/svg11.dtd">
<!-- Uploaded to: SVG Repo, www.svgrepo.com, Transformed by: SVG Repo Mixer Tools -->
<svg fill="#26a987" version="1.1" id="Capa_1" xmlns="http://www.w3.org/2000/svg" xmlns:xlink="http://www.w3.org/1999/xlink" width="800px" height="800px" viewBox="0 0 45.654 45.654" xml:space="preserve" stroke="#26a987">
<g id="SVGRepo_bgCarrier" stroke-width="0"/>
<g id="SVGRepo_tracerCarrier" stroke-linecap="round" stroke-linejoin="round"/>
<g id="SVGRepo_iconCarrier"> <g> <g> <path d="M28.387,39.246c-1.239,0.025-2.388,0.279-3.356,0.691c-0.378-0.733-0.981-1.399-1.758-1.965 c0.748-1.806,2.385-4.254,5.937-5.715c1.063,0.483,3.161,0.949,4.562-1.9c0.141-0.283,0.004-0.629-0.287-0.756 c-1.112-0.488-3.733-1.256-4.781,1.73c-3.697,1.559-5.476,4.109-6.324,6.075c-0.883-0.483-1.916-0.856-3.049-1.089 c-0.311-0.535-0.531-1.141-0.64-1.797c-0.39-2.34,0.725-4.479,2.982-5.725c2.996-1.65,4.411-3.328,5.062-4.677 c0.001,0.006,4.016-7.56-1.989-11.082C19.068,9.71,16.261,12.552,14.17,7.64c-0.116-0.274-0.517-0.246-0.573,0.047 c-0.474,2.479-1.288,8.952,2.473,11.461c3.631,2.422,9.951,0.063,10.654,4.288c-0.837-1.069-1.653-1.132-1.653-1.132 c0.005,0.024,0.129,2.103-4.41,4.658c-3.01,1.694-4.573,4.695-4.039,7.905c0.068,0.409,0.168,0.806,0.296,1.187 c-0.195-0.004-0.393-0.004-0.591,0c-2.268,0.045-4.326,0.625-5.895,1.543c-1.612-1.59-2.194-4.683-2.377-6.02 c0.693-0.926,1.648-2.92-0.904-4.898C6.9,26.482,6.534,26.547,6.35,26.807c-0.697,0.983-1.964,3.371,0.677,4.998 c0.198,1.43,0.794,4.446,2.437,6.287c-0.087,0.151-0.087,0.15-0.175,0.303c-0.617-0.094-1.262-0.143-1.929-0.129 C3.242,38.35-0.053,40.559,0,43.2c0.053,2.642,34.88,2.254,34.834,0C34.786,40.946,31.901,39.176,28.387,39.246z"/> <g> <path d="M36.431,13.815v1.669c0,0.661,0.532,1.196,1.193,1.196s1.193-0.535,1.193-1.196v-1.669 c-0.397,0.089-0.782,0.136-1.193,0.136S36.799,13.904,36.431,13.815z"/> <path d="M38.818,3.48V1.81c0-0.66-0.532-1.195-1.193-1.195S36.432,1.15,36.432,1.81v1.67c0.367-0.089,0.782-0.137,1.193-0.137 S38.421,3.391,38.818,3.48z"/> <path d="M42.12,11.454c-0.429,0.684-1.009,1.264-1.692,1.691l1.183,1.182c0.232,0.234,0.54,0.351,0.846,0.351 s0.612-0.116,0.847-0.351c0.467-0.467,0.467-1.224,0-1.691L42.12,11.454z"/> <path d="M33.122,5.84c0.429-0.684,1.009-1.264,1.691-1.691l-1.182-1.183c-0.468-0.467-1.226-0.467-1.692,0 c-0.468,0.468-0.468,1.226,0,1.692L33.122,5.84z"/> <path d="M33.122,11.453l-1.183,1.183c-0.468,0.468-0.468,1.225,0,1.691c0.233,0.234,0.539,0.351,0.848,0.351 c0.306,0,0.61-0.116,0.846-0.351l1.182-1.182C34.131,12.717,33.551,12.137,33.122,11.453z"/> <path d="M42.12,5.84l1.182-1.182c0.467-0.467,0.467-1.225,0-1.692c-0.468-0.467-1.226-0.467-1.691,0l-1.183,1.183 C41.111,4.577,41.691,5.157,42.12,5.84z"/> <path d="M44.457,7.451h-1.668c0.089,0.397,0.136,0.782,0.136,1.193s-0.047,0.827-0.136,1.193h1.668 c0.661,0,1.197-0.532,1.197-1.193S45.118,7.451,44.457,7.451z"/> <path d="M32.317,8.644c0-0.411,0.047-0.796,0.136-1.193h-1.669c-0.661,0-1.196,0.532-1.196,1.193s0.535,1.193,1.196,1.193h1.669 C32.364,9.471,32.317,9.055,32.317,8.644z"/> <circle cx="37.621" cy="8.647" r="4.278"/> </g> </g> </g> </g>
</svg>