<?xml version="1.0" encoding="UTF-8"?>
<!DOCTYPE svg PUBLIC "-//W3C//DTD SVG 1.1//EN" "http://www.w3.org/Graphics/SVG/1.1/DTD/svg11.dtd">
<!-- Creator: CorelDRAW X5 -->
<svg xmlns="http://www.w3.org/2000/svg" xml:space="preserve" width="23px" height="30px" style="shape-rendering:geometricPrecision; text-rendering:geometricPrecision; image-rendering:optimizeQuality; fill-rule:evenodd; clip-rule:evenodd"
viewBox="0 0 3.93381 5.23355"
 xmlns:xlink="http://www.w3.org/1999/xlink">
 <defs>
  <style type="text/css">
   <![CDATA[
    .fil0 {fill:#423797}
   ]]>
  </style>
 </defs>
 <g id="PowerClip_x0020_Contents">
  <metadata id="CorelCorpID_0Corel-Layer"/>
  <path class="fil0" d="M3.93381 3.21554c0,-0.0113325 -0.0041209,-0.0212227 -0.00576927,-0.031937 -0.000824181,-0.00453299 -0.00144232,-0.00906599 -0.0022665,-0.0129808 -0.00494508,-0.0201924 -0.0125688,-0.0381184 -0.022871,-0.0552201 -0.0022665,-0.00432695 -0.00494508,-0.00885994 -0.00762367,-0.0129808 -0.00370881,-0.00535717 -0.00576927,-0.0115385 -0.00989017,-0.0164836l-0.821914 -1.29479c-0.0360579,-0.0570745 -0.0993138,-0.0914841 -0.166485,-0.0914841l-0.00123627 0 0.459687 -0.459687c0.0770609,-0.077679 0.0770609,-0.202336 0,-0.279397l-0.902478 -0.90289c-0.036676,-0.0370881 -0.0873632,-0.0576927 -0.139493,-0.0576927 -0.0523355,0 -0.102611,0.0206045 -0.139699,0.0576927l-1.59809 1.59809c-0.0770609,0.077473 -0.0770609,0.20213 0,0.279191l0.123009 0.123009 -0.667792 1.05165c-0.00144232,0.00185441 -0.00185441,0.00350277 -0.00267859,0.00535717 -0.00679949,0.0115385 -0.0121567,0.0239012 -0.0166897,0.0368821 -0.00185441,0.00391486 -0.00309068,0.00803576 -0.0041209,0.0125688 -0.00309068,0.0119506 -0.00515113,0.0241073 -0.00618136,0.036676 0,0.00350277 -0.000824181,0.00721158 -0.000824181,0.0107143 -0.00041209,0.00144232 -0.00041209,0.0022665 -0.00041209,0.0022665l0 1.82165c0,0.109204 0.0881873,0.197803 0.197185,0.197803l3.53635 0c0.10941,0 0.197597,-0.0885994 0.197597,-0.197803l0 -1.79424c0.00144232,-0.0086539 0.00267859,-0.0171018 0.00267859,-0.0259617zm-2.94912 -0.871365l0.436404 0.436404 -0.344508 0c-0.036264,0 -0.0657284,0.0294645 -0.0657284,0.0657284 0,0.036264 0.0290524,0.0659345 0.0657284,0.0659345l1.77776 0c0.03647,0 0.0661405,-0.0290524 0.0661405,-0.0659345 0,-0.036264 -0.0296705,-0.0657284 -0.0661405,-0.0657284l-1.0395 0 0.685718 -0.685924 0.287845 0 0.585786 0.923495 -2.81726 0 0.42775 -0.673974zm2.55146 2.49438l-3.14116 0 0 -1.42542 3.14116 0 0 1.42542z"/>
 </g>
</svg>
