<?xml version="1.0" encoding="UTF-8"?>
<!DOCTYPE svg PUBLIC "-//W3C//DTD SVG 1.1//EN" "http://www.w3.org/Graphics/SVG/1.1/DTD/svg11.dtd">
<!-- Creator: CorelDRAW X5 -->
<svg xmlns="http://www.w3.org/2000/svg" xml:space="preserve" width="25px" height="30px" style="shape-rendering:geometricPrecision; text-rendering:geometricPrecision; image-rendering:optimizeQuality; fill-rule:evenodd; clip-rule:evenodd"
viewBox="0 0 0.886667 1.06283"
 xmlns:xlink="http://www.w3.org/1999/xlink">
 <defs>
  <style type="text/css">
   <![CDATA[
    .fil0 {fill:#26a987}
   ]]>
  </style>
 </defs>
 <g id="PowerClip_x0020_Contents">
  <metadata id="CorelCorpID_0Corel-Layer"/>
  <path class="fil0" d="M0.503296 0l0.0508819 0c0.0317175,0.0016319 0.0631002,0.00652761 0.093688,0.0161098 0.121514,0.0380359 0.212482,0.152604 0.233529,0.27893 0.0210474,0.125489 -0.0228048,0.257883 -0.106367,0.35496 -0.0201686,0.0235998 -0.0753186,0.0711342 -0.0783313,0.175367 -0.0075737,0.0783313 -0.0143524,0.15842 0.000878717,0.235036l-0.105279 0 0 -0.391782c0,-0.0151893 0.00849426,-0.0294998 0.0218842,-0.0370735 0.0447727,-0.0252317 0.0894618,-0.0529741 0.123104,-0.0918468 0.0666151,-0.0798796 0.065318,-0.196414 0.0236417,-0.291525 -0.0579535,-0.132644 -0.272611,-0.238551 -0.444045,-0.0969936 -0.0523464,0.0429734 -0.0868256,0.109379 -0.0818462,0.176873 0.000878717,0.0100006 -0.000878717,0.0351905 0.034521,0.047116 0.286462,-0.026487 0.261314,0.112015 0.267172,0.169299 0.0143524,0.136578 0.0177836,0.381823 0.0152311,0.518359l-0.232693 0c0.0049794,-0.047116 0.00192481,-0.173442 -0.0438522,-0.201477 -0.0304203,-0.0218842 -0.0707158,-0.00912192 -0.107873,-0.00410068 -0.0371153,0.0049794 -0.0850682,-0.00933114 -0.0868256,-0.0464883 -0.00150637,-0.0294998 0.0295416,-0.0613847 0.0102099,-0.0833107 -0.00669499,-0.0075737 -0.0177836,-0.0108375 -0.022763,-0.0201686 -0.0102099,-0.019541 0.0177836,-0.037994 0.0218842,-0.0599201 0.00933114,-0.0488316 -0.0908844,-0.0555265 -0.0900057,-0.104442 0.000836873,-0.025148 0.112811,-0.0774945 0.112811,-0.207294 0,-0.0566145 0.00242693,-0.115447 0.025148,-0.167751 0.0430153,-0.0985418 0.161098,-0.138921 0.267214,-0.156705 0.0324288,-0.00539783 0.065318,-0.00962404 0.0980816,-0.0111723zm-0.109379 0.263406c0.00217587,0.0107957 -0.00347302,0.0205871 -0.0132644,0.0240601 -0.0116744,0.00502124 -0.0255665,-0.00217587 -0.0282026,-0.0145198 -0.0049794,-0.024102 0.00414252,-0.0592506 0.0102099,-0.0811767 0.00129715,-0.0119673 0.011507,-0.0208381 0.0234743,-0.0197502 0.0112978,0.000418437 0.019541,0.0110886 0.0190807,0.0225119 -0.00715527,0.0200013 -0.0156495,0.0503798 -0.0112978,0.0688747zm0.160345 0.0069042c-0.00928929,0.0228048 -0.0227211,0.0421366 -0.0361948,0.0599201 -0.00761555,0.00933114 -0.0210892,0.0110886 -0.0304203,0.00343118 -0.00933114,-0.00669499 -0.0102099,-0.0201268 -0.00343118,-0.0294998 0.0119254,-0.0151474 0.0236417,-0.0310062 0.0304203,-0.0488316 0.0043099,-0.0100006 0.0142687,-0.0151893 0.0244785,-0.0125531 0.0125949,0.00255246 0.0202105,0.0160261 0.0151474,0.0275331zm-0.0466138 -0.052723c-0.00196665,0.0119254 -0.0130134,0.0199594 -0.0247296,0.0179928 -0.011507,-0.00108794 -0.0188715,-0.0125531 -0.0175743,-0.0238509 0.00276168,-0.0190807 0.0049794,-0.0388309 0.00213403,-0.0574932 -0.00125531,-0.0108794 0.00502124,-0.0202105 0.0150219,-0.0230559 0.0121347,-0.0039333 0.0253573,0.00389146 0.0268636,0.0164864 0.00330565,0.024353 0.001339,0.0477436 -0.00171559,0.0699208zm0.147792 0.0720548c-0.000878717,0.0119673 -0.0110886,0.0210474 -0.023014,0.0199594 -0.0114652,-0.000209218 -0.0197502,-0.0108375 -0.019541,-0.0223445 0.00108794,-0.0193318 0.00175743,-0.039082 -0.00276168,-0.057535 -0.00221771,-0.0108375 0.00318012,-0.0206289 0.0129715,-0.0243112 0.0119673,-0.00518861 0.0258594,0.00175743 0.0282026,0.0143524 0.00523046,0.024102 0.00523046,0.0477436 0.00414252,0.0698789zm0.0599201 0.125029c-0.00694605,0.0108375 -0.0219261,0.0134737 -0.0321359,0.0049794 -0.0075737,-0.0075737 -0.0100006,-0.0192899 -0.00410068,-0.0275331 0.00782477,-0.00765739 0.0075737,-0.0228048 0.0075737,-0.0295416 -0.000878717,-0.0119254 0.00761555,-0.0210474 0.0184531,-0.0228048 0.012846,-0.00171559 0.0236417,0.00761555 0.0244785,0.0202105 0,0.0108375 -0.00146453,0.0392912 -0.0142687,0.0546897zm-0.0783732 0.0294998c-0.000878717,0.0117162 -0.0102099,0.0210474 -0.0219261,0.0210474 -0.0119254,0 -0.0210474,-0.0102099 -0.0210474,-0.0219261 0.000878717,-0.0204197 0.00175743,-0.0405465 0.00347302,-0.0607152 0.000878717,-0.0117581 0.0119673,-0.0202105 0.0236835,-0.0193318 0.0116744,0.000836873 0.0201268,0.0110467 0.0193318,0.022763 -0.00175743,0.0193318 -0.00263615,0.0388309 -0.00351487,0.0581627z"/>
 </g>
</svg>
