<!DOCTYPE svg PUBLIC "-//W3C//DTD SVG 1.1//EN" "http://www.w3.org/Graphics/SVG/1.1/DTD/svg11.dtd">
<!-- Uploaded to: SVG Repo, www.svgrepo.com, Transformed by: SVG Repo Mixer Tools -->
<svg height="800px" width="800px" version="1.1" id="_x32_" xmlns="http://www.w3.org/2000/svg" xmlns:xlink="http://www.w3.org/1999/xlink" viewBox="0 0 512 512" xml:space="preserve" fill="#000000">
<g id="SVGRepo_bgCarrier" stroke-width="0"/>
<g id="SVGRepo_tracerCarrier" stroke-linecap="round" stroke-linejoin="round"/>
<g id="SVGRepo_iconCarrier"> <style type="text/css"> .st0{fill:#26a987;} </style> <g> <path class="st0" d="M78.642,118.933c22.879,0,41.415-18.551,41.415-41.414c0-22.888-18.536-41.423-41.415-41.423 c-22.887,0-41.422,18.535-41.422,41.423C37.219,100.383,55.755,118.933,78.642,118.933z"/> <path class="st0" d="M255.706,228.731v0.062c0.101,0,0.193-0.031,0.294-0.031c0.101,0,0.194,0.031,0.294,0.031v-0.062 c15.563-0.317,28.082-12.976,28.082-28.601c0-15.648-12.52-28.299-28.082-28.617v-0.062c-0.1,0-0.193,0.031-0.294,0.031 c-0.101,0-0.193-0.031-0.294-0.031v0.062c-15.563,0.318-28.082,12.969-28.082,28.617 C227.624,215.754,240.143,228.413,255.706,228.731z"/> <path class="st0" d="M433.358,118.933c22.887,0,41.423-18.551,41.423-41.414c0-22.888-18.536-41.423-41.423-41.423 c-22.879,0-41.414,18.535-41.414,41.423C391.944,100.383,410.48,118.933,433.358,118.933z"/> <path class="st0" d="M512,319.675V180.463c0-20.076-21.834-41.91-41.903-41.91h-5.799l-28.818,28.818l-28.214-28.214 c-17.839,2.609-33.564,13.665-41.918,30.018l-33.494,97.967c-1.154,2.245-3.298,3.84-5.792,4.281 c-2.493,0.442-5.048-0.31-6.914-2.036l-20.835-18.04c-6.232-5.769-14.409-8.974-22.902-8.974H256h-19.41 c-8.494,0-16.67,3.206-22.903,8.974l-20.835,18.04c-1.866,1.726-4.422,2.478-6.914,2.036c-2.494-0.442-4.638-2.036-5.792-4.281 l-33.494-97.967c-9.6-18.791-28.926-30.622-50.032-30.622H78.216H41.903C21.834,138.553,0,160.387,0,180.463v139.211 c0,10.035,8.13,18.172,18.165,18.172c4.939,0,0,0,12.682,0l6.906,118.724c0,10.677,8.664,19.333,19.341,19.333 c4.506,0,12.814,0,21.122,0c8.307,0,16.615,0,21.121,0c10.677,0,19.341-8.656,19.341-19.333l6.906-118.724l-0.086-84.765 c0-1.339,0.914-2.493,2.222-2.818c1.309-0.31,2.648,0.309,3.26,1.502l26.573,65.401c3.205,6.256,9.152,10.654,16.074,11.886 c6.921,1.23,14.021-0.844,19.186-5.614l25.426-18.729c0.852-0.782,2.083-0.983,3.136-0.542c1.061,0.472,1.742,1.518,1.742,2.663 l0.094,73.508l4.777,82.187c0,7.387,6,13.379,13.395,13.379c3.112,0,8.865,0,14.618,0c5.753,0,11.506,0,14.618,0 c7.394,0,13.394-5.992,13.394-13.379l4.777-82.187l0.093-73.508c0-1.146,0.681-2.192,1.742-2.663 c1.053-0.442,2.284-0.24,3.136,0.542l25.426,18.729c5.164,4.77,12.264,6.844,19.187,5.614c6.921-1.231,12.868-5.629,16.073-11.886 l26.572-65.401c0.612-1.192,1.951-1.812,3.26-1.502c1.308,0.325,2.222,1.479,2.222,2.818l-0.031,32.332l-27.881,86.648 c-0.659,2.051-0.302,4.296,0.967,6.039c1.27,1.742,3.298,2.772,5.451,2.772h23.91l4.405,75.699 c0,10.677,8.664,19.333,19.341,19.333c4.506,0,12.814,0,21.121,0c8.308,0,16.615,0,21.122,0c10.677,0,19.34-8.656,19.34-19.333 l4.406-75.699h26.418c2.152,0,4.181-1.03,5.451-2.772c1.27-1.743,1.626-3.988,0.968-6.039L500.1,336.67 C507.037,334.107,512,327.495,512,319.675z M85.424,159.087v74.592H63.389v-74.592H85.424z"/> </g> </g>
</svg>