<svg xmlns="http://www.w3.org/2000/svg" width="26" height="25" viewBox="0 0 26 25" version="1.1"><path d="M 9.714 0.619 C 8.315 2.018, 9.008 6.906, 10.750 7.920 C 12.256 8.797, 12.128 8.943, 9.835 8.970 C 7.811 8.993, 6.290 10.199, 3.509 13.987 C -0.715 19.742, -0.791 22.595, 3.289 22.312 C 5.068 22.188, 6 22.618, 6 23.562 C 6 24.676, 7.578 25, 13 25 C 18.689 25, 20 24.707, 20 23.433 C 20 22.308, 20.579 22.049, 22.048 22.515 C 23.174 22.873, 24.749 22.623, 25.548 21.960 C 27.071 20.696, 27.624 16.496, 26.147 17.409 C 25.677 17.699, 23.850 15.926, 22.085 13.468 C 19.683 10.124, 18.214 9, 16.247 9 C 13.845 9, 13.772 8.888, 15.395 7.701 C 16.577 6.836, 17.059 5.414, 16.836 3.451 C 16.555 0.986, 15.999 0.451, 13.464 0.203 C 11.794 0.039, 10.107 0.227, 9.714 0.619 M 7 14.733 C 7 15.430, 7.675 16, 8.500 16 C 9.926 16, 10.174 16.521, 10.404 20 C 10.537 22.016, 15.463 22.016, 15.596 20 C 15.826 16.521, 16.074 16, 17.500 16 C 18.325 16, 19 15.430, 19 14.733 C 19 13.852, 17.175 13.467, 13 13.467 C 8.825 13.467, 7 13.852, 7 14.733 M 0.158 20 C 0.158 21.375, 0.385 21.938, 0.662 21.250 C 0.940 20.563, 0.940 19.438, 0.662 18.750 C 0.385 18.063, 0.158 18.625, 0.158 20" stroke="none" fill="#08ac84" fill-rule="evenodd"/><path d="" stroke="none" fill="#04ac84" fill-rule="evenodd"/></svg>